<svg width="265" height="80" viewBox="0 0 265 80" fill="none" xmlns="http://www.w3.org/2000/svg">
<rect x="2.5" y="2.5" width="260" height="75" stroke="#1599D5" stroke-width="5"/>
<path d="M59.364 50L66.42 31.324H71.376L77.984 50H73.336L67.372 32.388L69.584 32.192L63.648 50H59.364ZM63.34 45.968L64.264 42.636H72.748L73.168 45.968H63.34ZM87.9785 50.364C84.9918 50.364 82.7051 49.58 81.1185 48.012C79.5505 46.4253 78.7665 43.98 78.7665 40.676C78.7665 37.4653 79.5225 35.0387 81.0345 33.396C82.5465 31.7347 84.8611 30.904 87.9785 30.904C88.9678 30.904 89.9665 31.0253 90.9745 31.268C91.9825 31.5107 92.9625 31.8467 93.9145 32.276V36.224C92.9438 35.5893 92.0105 35.132 91.1145 34.852C90.2185 34.572 89.3785 34.432 88.5945 34.432C87.4931 34.432 86.5598 34.628 85.7945 35.02C85.0478 35.412 84.4691 36.0653 84.0585 36.98C83.6665 37.8947 83.4705 39.1267 83.4705 40.676C83.4705 42.2253 83.6665 43.448 84.0585 44.344C84.4691 45.24 85.0665 45.884 85.8505 46.276C86.6531 46.6493 87.6331 46.836 88.7905 46.836C89.4811 46.836 90.2651 46.7053 91.1425 46.444C92.0198 46.1827 92.9438 45.7347 93.9145 45.1V49.048C93.3918 49.3093 92.7945 49.5427 92.1225 49.748C91.4691 49.9347 90.7785 50.084 90.0505 50.196C89.3411 50.308 88.6505 50.364 87.9785 50.364ZM105.615 50.364C102.629 50.364 100.342 49.58 98.7552 48.012C97.1872 46.4253 96.4032 43.98 96.4032 40.676C96.4032 37.4653 97.1592 35.0387 98.6712 33.396C100.183 31.7347 102.498 30.904 105.615 30.904C106.605 30.904 107.603 31.0253 108.611 31.268C109.619 31.5107 110.599 31.8467 111.551 32.276V36.224C110.581 35.5893 109.647 35.132 108.751 34.852C107.855 34.572 107.015 34.432 106.231 34.432C105.13 34.432 104.197 34.628 103.431 35.02C102.685 35.412 102.106 36.0653 101.695 36.98C101.303 37.8947 101.107 39.1267 101.107 40.676C101.107 42.2253 101.303 43.448 101.695 44.344C102.106 45.24 102.703 45.884 103.487 46.276C104.29 46.6493 105.27 46.836 106.427 46.836C107.118 46.836 107.902 46.7053 108.779 46.444C109.657 46.1827 110.581 45.7347 111.551 45.1V49.048C111.029 49.3093 110.431 49.5427 109.759 49.748C109.106 49.9347 108.415 50.084 107.687 50.196C106.978 50.308 106.287 50.364 105.615 50.364ZM114.992 50V31.324H127.788V34.824H119.528V38.884H126.696V42.412H119.528V46.5H127.788V50H114.992ZM137.862 50.392C136.91 50.392 136.051 50.3453 135.286 50.252C134.52 50.1587 133.811 50.0187 133.158 49.832C132.504 49.6453 131.87 49.4027 131.254 49.104V44.792C132.112 45.4827 133.083 46.0053 134.166 46.36C135.248 46.7147 136.275 46.892 137.246 46.892C138.104 46.892 138.758 46.7333 139.206 46.416C139.672 46.08 139.906 45.576 139.906 44.904C139.906 44.4 139.691 43.9987 139.262 43.7C138.851 43.3827 138.3 43.112 137.61 42.888C136.919 42.6453 136.144 42.3747 135.286 42.076C134.744 41.908 134.212 41.6933 133.69 41.432C133.167 41.1707 132.7 40.844 132.29 40.452C131.879 40.0413 131.552 39.5467 131.31 38.968C131.067 38.3893 130.946 37.68 130.946 36.84C130.946 36.0747 131.086 35.3373 131.366 34.628C131.646 33.9187 132.075 33.284 132.654 32.724C133.251 32.164 134.007 31.7253 134.922 31.408C135.836 31.072 136.91 30.904 138.142 30.904C138.907 30.904 139.579 30.9507 140.158 31.044C140.755 31.1373 141.324 31.2773 141.866 31.464C142.407 31.632 142.958 31.856 143.518 32.136V36.504C143.088 36.1493 142.603 35.8227 142.062 35.524C141.539 35.2067 140.988 34.9453 140.41 34.74C139.831 34.5347 139.224 34.4227 138.59 34.404C138.03 34.3853 137.516 34.4413 137.05 34.572C136.583 34.7027 136.219 34.9173 135.958 35.216C135.696 35.496 135.566 35.86 135.566 36.308C135.566 36.8307 135.724 37.2413 136.042 37.54C136.359 37.8387 136.798 38.0907 137.358 38.296C137.918 38.4827 138.543 38.688 139.234 38.912C139.999 39.136 140.699 39.388 141.334 39.668C141.987 39.9293 142.556 40.2653 143.042 40.676C143.527 41.0867 143.9 41.5907 144.162 42.188C144.423 42.7853 144.554 43.504 144.554 44.344C144.554 45.464 144.292 46.4907 143.77 47.424C143.247 48.3387 142.491 49.0667 141.502 49.608C140.512 50.1307 139.299 50.392 137.862 50.392ZM154.022 50.392C153.07 50.392 152.211 50.3453 151.446 50.252C150.68 50.1587 149.971 50.0187 149.318 49.832C148.664 49.6453 148.03 49.4027 147.414 49.104V44.792C148.272 45.4827 149.243 46.0053 150.326 46.36C151.408 46.7147 152.435 46.892 153.406 46.892C154.264 46.892 154.918 46.7333 155.366 46.416C155.832 46.08 156.066 45.576 156.066 44.904C156.066 44.4 155.851 43.9987 155.422 43.7C155.011 43.3827 154.46 43.112 153.77 42.888C153.079 42.6453 152.304 42.3747 151.446 42.076C150.904 41.908 150.372 41.6933 149.85 41.432C149.327 41.1707 148.86 40.844 148.45 40.452C148.039 40.0413 147.712 39.5467 147.47 38.968C147.227 38.3893 147.106 37.68 147.106 36.84C147.106 36.0747 147.246 35.3373 147.526 34.628C147.806 33.9187 148.235 33.284 148.814 32.724C149.411 32.164 150.167 31.7253 151.082 31.408C151.996 31.072 153.07 30.904 154.302 30.904C155.067 30.904 155.739 30.9507 156.318 31.044C156.915 31.1373 157.484 31.2773 158.026 31.464C158.567 31.632 159.118 31.856 159.678 32.136V36.504C159.248 36.1493 158.763 35.8227 158.222 35.524C157.699 35.2067 157.148 34.9453 156.57 34.74C155.991 34.5347 155.384 34.4227 154.75 34.404C154.19 34.3853 153.676 34.4413 153.21 34.572C152.743 34.7027 152.379 34.9173 152.118 35.216C151.856 35.496 151.726 35.86 151.726 36.308C151.726 36.8307 151.884 37.2413 152.202 37.54C152.519 37.8387 152.958 38.0907 153.518 38.296C154.078 38.4827 154.703 38.688 155.394 38.912C156.159 39.136 156.859 39.388 157.494 39.668C158.147 39.9293 158.716 40.2653 159.202 40.676C159.687 41.0867 160.06 41.5907 160.322 42.188C160.583 42.7853 160.714 43.504 160.714 44.344C160.714 45.464 160.452 46.4907 159.93 47.424C159.407 48.3387 158.651 49.0667 157.662 49.608C156.672 50.1307 155.459 50.392 154.022 50.392ZM163.91 50V31.324H168.446V50H163.91ZM172.414 50V31.324H180.338C181.7 31.324 182.876 31.5013 183.866 31.856C184.874 32.192 185.658 32.7427 186.218 33.508C186.778 34.2547 187.058 35.2533 187.058 36.504C187.058 37.344 186.852 38.0347 186.442 38.576C186.031 39.1173 185.536 39.556 184.958 39.892C184.379 40.2093 183.838 40.4613 183.334 40.648L182.83 39.668C183.856 39.7053 184.752 39.92 185.518 40.312C186.302 40.6853 186.908 41.2173 187.338 41.908C187.786 42.58 188.01 43.392 188.01 44.344C188.01 45.6507 187.692 46.724 187.058 47.564C186.442 48.3853 185.611 49.0013 184.566 49.412C183.52 49.804 182.363 50 181.094 50H172.414ZM176.95 46.5H180.758C181.224 46.5 181.654 46.4347 182.046 46.304C182.438 46.1547 182.755 45.912 182.998 45.576C183.24 45.2213 183.362 44.7547 183.362 44.176C183.362 43.7467 183.287 43.392 183.138 43.112C182.988 42.832 182.783 42.6173 182.522 42.468C182.279 42.3 181.999 42.1787 181.682 42.104C181.364 42.0293 181.028 41.992 180.674 41.992H176.95V46.5ZM176.95 38.66H180.59C180.907 38.66 181.206 38.604 181.486 38.492C181.766 38.3613 181.99 38.1653 182.158 37.904C182.344 37.6427 182.438 37.2973 182.438 36.868C182.438 36.1027 182.232 35.58 181.822 35.3C181.411 35.0013 180.907 34.852 180.31 34.852H176.95V38.66ZM191.199 50V31.324H195.735V50H191.199ZM199.703 50V31.324H204.239V46.444H212.359V50H199.703ZM215.234 50V31.324H219.77V50H215.234ZM227.658 50V34.824H222.422V31.324H237.514V34.824H232.194V50H227.658ZM240.172 50V31.324H252.968V34.824H244.708V38.884H251.876V42.412H244.708V46.5H252.968V50H240.172Z" fill="#1599D5"/>
<path d="M34 17C21.2972 17 11 27.2972 11 40C11 52.7028 21.2972 63 34 63C46.7028 63 57 52.7028 57 40C57 27.2972 46.7028 17 34 17Z" fill="url(#paint0_linear_131_102)"/>
<path d="M34 18.0781C21.8927 18.0781 12.0781 27.8927 12.0781 40C12.0781 52.1073 21.8927 61.9219 34 61.9219C46.1073 61.9219 55.9219 52.1073 55.9219 40C55.9219 27.8927 46.1073 18.0781 34 18.0781Z" fill="white"/>
<path d="M34 19.1562C22.4881 19.1562 13.1562 28.4881 13.1562 40C13.1562 51.5119 22.4881 60.8438 34 60.8438C45.5119 60.8438 54.8438 51.5119 54.8438 40C54.8438 28.4881 45.5119 19.1562 34 19.1562Z" fill="url(#paint1_linear_131_102)"/>
<path fill-rule="evenodd" clip-rule="evenodd" d="M36.9091 34.7941L36.9127 41.412L39.5725 52.3276C39.75 53.041 39.7414 53.7723 39.0352 53.9499C38.3326 54.127 37.7752 53.9283 37.5977 53.2185L34.2756 43.1014H33.2112L30.0508 53.2185C29.7849 53.9035 29.2951 54.2158 28.6133 53.9499C27.9356 53.6872 27.946 52.917 28.2123 52.232L30.7775 41.5255V34.7941L23.2223 34.1224C22.5625 34.0692 22.091 33.7045 22.1442 33.0443C22.1942 32.3805 22.8181 31.9859 23.4746 32.0391H35.4411L44.4456 32.0247C45.1058 32 45.8418 32.3769 45.863 33.0443C45.8917 33.7009 45.1058 34.094 44.4456 34.1224L36.9091 34.7941ZM36.2907 28.4306C36.2909 28.7534 36.2275 29.0731 36.1041 29.3713C35.9807 29.6696 35.7997 29.9406 35.5714 30.1688C35.3432 30.3971 35.0722 30.5781 34.7739 30.7015C34.4757 30.8249 34.156 30.8883 33.8333 30.888C32.4856 30.888 31.387 29.7894 31.387 28.4306C31.3834 27.083 32.482 25.9844 33.8333 25.9844C35.1917 25.9844 36.2907 27.083 36.2907 28.4306Z" fill="white"/>
<defs>
<linearGradient id="paint0_linear_131_102" x1="34" y1="34.3337" x2="34" y2="63" gradientUnits="userSpaceOnUse">
<stop stop-color="#139FDA"/>
<stop offset="1" stop-color="#2359A7"/>
</linearGradient>
<linearGradient id="paint1_linear_131_102" x1="34" y1="34.8649" x2="34" y2="60.8438" gradientUnits="userSpaceOnUse">
<stop stop-color="#139FDA"/>
<stop offset="1" stop-color="#2359A7"/>
</linearGradient>
</defs>
</svg>
