<svg width="265" height="80" viewBox="0 0 265 80" fill="none" xmlns="http://www.w3.org/2000/svg">
<rect x="2.5" y="2.5" width="260" height="75" stroke="#E37400" stroke-width="5"/>
<path d="M90.351 50L97.155 31.991H101.934L108.306 50H103.824L98.073 33.017L100.206 32.828L94.482 50H90.351ZM94.185 46.112L95.076 42.899H103.257L103.662 46.112H94.185ZM110.585 50V31.991H114.311L123.572 44.465L122.276 47.165V31.991H126.299V50H123.005L113.582 37.688L114.608 35.717V50H110.585ZM128.557 50L135.361 31.991H140.14L146.512 50H142.03L136.279 33.017L138.412 32.828L132.688 50H128.557ZM132.391 46.112L133.282 42.899H141.463L141.868 46.112H132.391ZM148.791 50V31.991H153.165V46.571H160.995V50H148.791ZM166.717 50V42.224L159.886 31.991H165.259L170.389 40.604H168.364L173.035 31.991H177.382L170.47 43.304L171.091 40.982V50H166.717ZM183.711 50V35.366H178.662V31.991H193.215V35.366H188.085V50H183.711ZM195.777 50V31.991H200.151V50H195.777ZM211.943 50.351C209.063 50.351 206.858 49.595 205.328 48.083C203.816 46.553 203.06 44.195 203.06 41.009C203.06 37.913 203.789 35.573 205.247 33.989C206.705 32.387 208.937 31.586 211.943 31.586C212.897 31.586 213.86 31.703 214.832 31.937C215.804 32.171 216.749 32.495 217.667 32.909V36.716C216.731 36.104 215.831 35.663 214.967 35.393C214.103 35.123 213.293 34.988 212.537 34.988C211.475 34.988 210.575 35.177 209.837 35.555C209.117 35.933 208.559 36.563 208.163 37.445C207.785 38.327 207.596 39.515 207.596 41.009C207.596 42.503 207.785 43.682 208.163 44.546C208.559 45.41 209.135 46.031 209.891 46.409C210.665 46.769 211.61 46.949 212.726 46.949C213.392 46.949 214.148 46.823 214.994 46.571C215.84 46.319 216.731 45.887 217.667 45.275V49.082C217.163 49.334 216.587 49.559 215.939 49.757C215.309 49.937 214.643 50.081 213.941 50.189C213.257 50.297 212.591 50.351 211.943 50.351ZM227.032 50.378C226.114 50.378 225.286 50.333 224.548 50.243C223.81 50.153 223.126 50.018 222.496 49.838C221.866 49.658 221.254 49.424 220.66 49.136V44.978C221.488 45.644 222.424 46.148 223.468 46.49C224.512 46.832 225.502 47.003 226.438 47.003C227.266 47.003 227.896 46.85 228.328 46.544C228.778 46.22 229.003 45.734 229.003 45.086C229.003 44.6 228.796 44.213 228.382 43.925C227.986 43.619 227.455 43.358 226.789 43.142C226.123 42.908 225.376 42.647 224.548 42.359C224.026 42.197 223.513 41.99 223.009 41.738C222.505 41.486 222.055 41.171 221.659 40.793C221.263 40.397 220.948 39.92 220.714 39.362C220.48 38.804 220.363 38.12 220.363 37.31C220.363 36.572 220.498 35.861 220.768 35.177C221.038 34.493 221.452 33.881 222.01 33.341C222.586 32.801 223.315 32.378 224.197 32.072C225.079 31.748 226.114 31.586 227.302 31.586C228.04 31.586 228.688 31.631 229.246 31.721C229.822 31.811 230.371 31.946 230.893 32.126C231.415 32.288 231.946 32.504 232.486 32.774V36.986C232.072 36.644 231.604 36.329 231.082 36.041C230.578 35.735 230.047 35.483 229.489 35.285C228.931 35.087 228.346 34.979 227.734 34.961C227.194 34.943 226.699 34.997 226.249 35.123C225.799 35.249 225.448 35.456 225.196 35.744C224.944 36.014 224.818 36.365 224.818 36.797C224.818 37.301 224.971 37.697 225.277 37.985C225.583 38.273 226.006 38.516 226.546 38.714C227.086 38.894 227.689 39.092 228.355 39.308C229.093 39.524 229.768 39.767 230.38 40.037C231.01 40.289 231.559 40.613 232.027 41.009C232.495 41.405 232.855 41.891 233.107 42.467C233.359 43.043 233.485 43.736 233.485 44.546C233.485 45.626 233.233 46.616 232.729 47.516C232.225 48.398 231.496 49.1 230.542 49.622C229.588 50.126 228.418 50.378 227.032 50.378Z" fill="#E37400"/>
<g clip-path="url(#clip0_131_151)">
<path d="M72.5526 57.2439C72.5696 60.4021 70.0227 62.9738 66.8664 62.9908C66.6318 62.9927 66.3953 62.9795 66.1625 62.9511C63.2334 62.5177 61.0876 59.9688 61.1595 57.0092V22.9816C61.0895 20.0182 63.2409 17.4693 66.172 17.0397C69.3074 16.6726 72.1477 18.9169 72.5148 22.0525C72.5413 22.2833 72.5545 22.5142 72.5526 22.747V57.2439Z" fill="#F9AB00"/>
<path d="M36.6977 51.6045C39.8446 51.6045 42.3955 54.1553 42.3955 57.3022C42.3955 60.4492 39.8446 63 36.6977 63C33.5508 63 31 60.4492 31 57.3022C31 54.1553 33.5508 51.6045 36.6977 51.6045ZM51.6886 34.3371C48.5265 34.5112 46.0741 37.1624 46.1479 40.3282V55.6313C46.1479 59.785 47.9759 62.3055 50.6535 62.8429C53.7436 63.4693 56.7542 61.4729 57.3806 58.3827C57.4582 58.0043 57.496 57.6201 57.4941 57.2341V40.0633C57.4998 36.905 54.9452 34.3409 51.787 34.3352C51.7548 34.3352 51.7207 34.3352 51.6886 34.3371Z" fill="#E37400"/>
</g>
<defs>
<clipPath id="clip0_131_151">
<rect width="41.5531" height="46" fill="white" transform="translate(31 17)"/>
</clipPath>
</defs>
</svg>
