<svg width="265" height="80" viewBox="0 0 265 80" fill="none" xmlns="http://www.w3.org/2000/svg">
<rect x="2.5" y="2.5" width="260" height="75" stroke="black" stroke-width="5"/>
<path d="M134.556 54V29.988H144.744C146.496 29.988 148.008 30.216 149.28 30.672C150.576 31.104 151.584 31.812 152.304 32.796C153.024 33.756 153.384 35.04 153.384 36.648C153.384 37.728 153.12 38.616 152.592 39.312C152.064 40.008 151.428 40.572 150.684 41.004C149.94 41.412 149.244 41.736 148.596 41.976L147.948 40.716C149.268 40.764 150.42 41.04 151.404 41.544C152.412 42.024 153.192 42.708 153.744 43.596C154.32 44.46 154.608 45.504 154.608 46.728C154.608 48.408 154.2 49.788 153.384 50.868C152.592 51.924 151.524 52.716 150.18 53.244C148.836 53.748 147.348 54 145.716 54H134.556ZM140.388 49.5H145.284C145.884 49.5 146.436 49.416 146.94 49.248C147.444 49.056 147.852 48.744 148.164 48.312C148.476 47.856 148.632 47.256 148.632 46.512C148.632 45.96 148.536 45.504 148.344 45.144C148.152 44.784 147.888 44.508 147.552 44.316C147.24 44.1 146.88 43.944 146.472 43.848C146.064 43.752 145.632 43.704 145.176 43.704H140.388V49.5ZM140.388 39.42H145.068C145.476 39.42 145.86 39.348 146.22 39.204C146.58 39.036 146.868 38.784 147.084 38.448C147.324 38.112 147.444 37.668 147.444 37.116C147.444 36.132 147.18 35.46 146.652 35.1C146.124 34.716 145.476 34.524 144.708 34.524H140.388V39.42ZM158.708 54V29.988H175.16V34.488H164.54V39.708H173.756V44.244H164.54V49.5H175.16V54H158.708ZM180.048 54V29.988H185.988L194.232 41.472L191.064 41.58L199.596 29.988H205.392V54H199.56V34.38L200.712 36.252L192.504 47.16L184.368 36.072L185.628 35.208V54H180.048Z" fill="black"/>
<g clip-path="url(#clip0_131_113)">
<path d="M58 26.0935H70.9863V29.9131H58V26.0935ZM58 19H70.9863V22.8195H58V19ZM81.2994 33.1324H58V36.9519H80.4263C82.8817 36.9519 88.6108 37.0064 90.739 40.444V38.3161C89.7022 34.9329 86.6467 33.1324 81.2992 33.1324H81.2994ZM81.3537 40.2257H58V44.0453H80.4263C85.8827 44.0453 89.3204 44.2635 90.739 45.0275V43.336C89.6476 40.6623 85.0643 40.2257 81.3539 40.2257H81.3537ZM81.2994 58.2321H58V54.4126H80.4263C82.8817 54.4126 88.6108 54.3582 90.739 50.9205V53.0485C89.7022 56.4316 86.6467 58.2321 81.2992 58.2321H81.2994ZM81.3537 51.1388H58V47.3193H80.4263C85.8827 47.3193 89.3204 47.101 90.739 46.337V48.0286C89.6476 50.7022 85.0643 51.1388 81.3539 51.1388H81.3537ZM96.4137 64.8347H113.547V62.4882H96.9047C95.4314 62.4882 91.9395 62.4338 90.6845 60.4148V61.7245C91.2847 63.7432 93.1399 64.8347 96.4137 64.8347V64.8347ZM96.3592 60.5239H113.493V58.1777H96.9047C93.5762 58.1777 91.5028 58.0685 90.6843 57.5775V58.6142C91.3389 60.2512 94.1217 60.5239 96.359 60.5239H96.3592Z" fill="#010101"/>
</g>
<defs>
<clipPath id="clip0_131_113">
<rect width="55.5556" height="46" fill="white" transform="translate(58 19)"/>
</clipPath>
</defs>
</svg>
