<svg width="265" height="80" viewBox="0 0 265 80" fill="none" xmlns="http://www.w3.org/2000/svg">
<rect x="2.5" y="2.5" width="260" height="75" stroke="#669DF3" stroke-width="5"/>
<path d="M75.917 50V31.991H83.153C86.213 31.991 88.463 32.756 89.903 34.286C91.343 35.798 92.063 38.039 92.063 41.009C92.063 43.961 91.343 46.202 89.903 47.732C88.463 49.244 86.213 50 83.153 50H75.917ZM80.291 46.625H82.64C84.26 46.625 85.484 46.175 86.312 45.275C87.158 44.375 87.581 42.953 87.581 41.009C87.581 39.029 87.158 37.598 86.312 36.716C85.484 35.816 84.26 35.366 82.64 35.366H80.291V46.625ZM93.5463 50L100.35 31.991H105.129L111.501 50H107.019L101.268 33.017L103.401 32.828L97.6773 50H93.5463ZM97.3803 46.112L98.2713 42.899H106.452L106.857 46.112H97.3803ZM115.952 50V35.366H110.903V31.991H125.456V35.366H120.326V50H115.952ZM124.844 50L131.648 31.991H136.427L142.799 50H138.317L132.566 33.017L134.699 32.828L128.975 50H124.844ZM128.678 46.112L129.569 42.899H137.75L138.155 46.112H128.678ZM158.588 50.378C157.67 50.378 156.842 50.333 156.104 50.243C155.366 50.153 154.682 50.018 154.052 49.838C153.422 49.658 152.81 49.424 152.216 49.136V44.978C153.044 45.644 153.98 46.148 155.024 46.49C156.068 46.832 157.058 47.003 157.994 47.003C158.822 47.003 159.452 46.85 159.884 46.544C160.334 46.22 160.559 45.734 160.559 45.086C160.559 44.6 160.352 44.213 159.938 43.925C159.542 43.619 159.011 43.358 158.345 43.142C157.679 42.908 156.932 42.647 156.104 42.359C155.582 42.197 155.069 41.99 154.565 41.738C154.061 41.486 153.611 41.171 153.215 40.793C152.819 40.397 152.504 39.92 152.27 39.362C152.036 38.804 151.919 38.12 151.919 37.31C151.919 36.572 152.054 35.861 152.324 35.177C152.594 34.493 153.008 33.881 153.566 33.341C154.142 32.801 154.871 32.378 155.753 32.072C156.635 31.748 157.67 31.586 158.858 31.586C159.596 31.586 160.244 31.631 160.802 31.721C161.378 31.811 161.927 31.946 162.449 32.126C162.971 32.288 163.502 32.504 164.042 32.774V36.986C163.628 36.644 163.16 36.329 162.638 36.041C162.134 35.735 161.603 35.483 161.045 35.285C160.487 35.087 159.902 34.979 159.29 34.961C158.75 34.943 158.255 34.997 157.805 35.123C157.355 35.249 157.004 35.456 156.752 35.744C156.5 36.014 156.374 36.365 156.374 36.797C156.374 37.301 156.527 37.697 156.833 37.985C157.139 38.273 157.562 38.516 158.102 38.714C158.642 38.894 159.245 39.092 159.911 39.308C160.649 39.524 161.324 39.767 161.936 40.037C162.566 40.289 163.115 40.613 163.583 41.009C164.051 41.405 164.411 41.891 164.663 42.467C164.915 43.043 165.041 43.736 165.041 44.546C165.041 45.626 164.789 46.616 164.285 47.516C163.781 48.398 163.052 49.1 162.098 49.622C161.144 50.126 159.974 50.378 158.588 50.378ZM171.903 50V35.366H166.854V31.991H181.407V35.366H176.277V50H171.903ZM192.259 50.567C189.487 50.567 187.408 49.982 186.022 48.812C184.654 47.624 183.97 45.779 183.97 43.277V31.991H188.533V43.088C188.533 44.474 188.812 45.5 189.37 46.166C189.928 46.832 190.819 47.165 192.043 47.165C193.159 47.165 194.023 46.832 194.635 46.166C195.265 45.5 195.58 44.474 195.58 43.088V31.991H199.738V43.277C199.738 44.951 199.414 46.328 198.766 47.408C198.136 48.47 197.263 49.262 196.147 49.784C195.031 50.306 193.735 50.567 192.259 50.567ZM203.561 50V31.991H210.797C213.857 31.991 216.107 32.756 217.547 34.286C218.987 35.798 219.707 38.039 219.707 41.009C219.707 43.961 218.987 46.202 217.547 47.732C216.107 49.244 213.857 50 210.797 50H203.561ZM207.935 46.625H210.284C211.904 46.625 213.128 46.175 213.956 45.275C214.802 44.375 215.225 42.953 215.225 41.009C215.225 39.029 214.802 37.598 213.956 36.716C213.128 35.816 211.904 35.366 210.284 35.366H207.935V46.625ZM222.756 50V31.991H227.13V50H222.756ZM238.975 50.378C237.193 50.378 235.645 50.045 234.331 49.379C233.017 48.695 231.991 47.66 231.253 46.274C230.533 44.888 230.173 43.133 230.173 41.009C230.173 37.931 230.947 35.6 232.495 34.016C234.043 32.432 236.203 31.64 238.975 31.64C240.757 31.64 242.305 31.982 243.619 32.666C244.951 33.332 245.977 34.349 246.697 35.717C247.417 37.085 247.777 38.84 247.777 40.982C247.777 44.078 247.003 46.418 245.455 48.002C243.925 49.586 241.765 50.378 238.975 50.378ZM238.975 46.787C239.893 46.787 240.667 46.598 241.297 46.22C241.945 45.842 242.431 45.23 242.755 44.384C243.097 43.52 243.268 42.386 243.268 40.982C243.268 39.56 243.097 38.426 242.755 37.58C242.431 36.734 241.945 36.131 241.297 35.771C240.667 35.393 239.893 35.204 238.975 35.204C238.057 35.204 237.283 35.393 236.653 35.771C236.023 36.149 235.537 36.761 235.195 37.607C234.871 38.453 234.709 39.596 234.709 41.036C234.709 42.458 234.871 43.592 235.195 44.438C235.537 45.266 236.023 45.869 236.653 46.247C237.283 46.607 238.057 46.787 238.975 46.787Z" fill="#669DF3"/>
<g clip-path="url(#clip0_131_159)">
<path d="M59.2743 50.4492H41.3174C36.9755 50.4492 34.5425 53.4894 34.5425 56.7236C34.5425 59.7085 36.6056 62.998 41.3174 62.998H59.2743V50.4492Z" fill="#669DF3"/>
<path d="M59.2741 62.9881C62.6859 62.9881 65.4517 60.179 65.4517 56.7137C65.4517 53.2484 62.6859 50.4393 59.2741 50.4393C55.8623 50.4393 53.0964 53.2484 53.0964 56.7137C53.0964 60.179 55.8623 62.9881 59.2741 62.9881Z" fill="#1A73E8"/>
<path d="M40.7318 33.7186H22.7749C18.433 33.7186 16 36.7589 16 39.9951C16 42.98 18.0631 46.2695 22.7749 46.2695H40.7318V33.7186Z" fill="#669DF3"/>
<path d="M40.7317 46.2695C44.1435 46.2695 46.9092 43.4603 46.9092 39.9951C46.9092 36.5298 44.1435 33.7206 40.7317 33.7206C37.32 33.7206 34.5542 36.5298 34.5542 39.9951C34.5542 43.4603 37.32 46.2695 40.7317 46.2695Z" fill="#1A73E8"/>
<path d="M59.2743 17H41.3174C36.9755 17 34.5425 20.0403 34.5425 23.2744C34.5425 26.2593 36.6056 29.5489 41.3174 29.5489H59.2743V17Z" fill="#669DF3"/>
<path d="M59.2741 29.5489C62.6859 29.5489 65.4517 26.7397 65.4517 23.2744C65.4517 19.8092 62.6859 17 59.2741 17C55.8623 17 53.0964 19.8092 53.0964 23.2744C53.0964 26.7397 55.8623 29.5489 59.2741 29.5489Z" fill="#1A73E8"/>
</g>
<defs>
<clipPath id="clip0_131_159">
<rect width="49.4517" height="46" fill="white" transform="translate(16 17)"/>
</clipPath>
</defs>
</svg>
