<svg width="265" height="80" viewBox="0 0 265 80" fill="none" xmlns="http://www.w3.org/2000/svg">
<rect x="2.5" y="2.5" width="260" height="75" stroke="#D63362" stroke-width="5"/>
<path d="M78.13 50V29.99H91.84V33.74H82.99V38.09H90.67V41.87H82.99V46.25H91.84V50H78.13ZM95.9132 50V29.99H100.773V46.19H109.473V50H95.9132ZM112.554 50V29.99H126.264V33.74H117.414V38.09H125.094V41.87H117.414V46.25H126.264V50H112.554ZM130.337 50V29.99H135.287L142.157 39.56L139.517 39.65L146.627 29.99H151.457V50H146.597V33.65L147.557 35.21L140.717 44.3L133.937 35.06L134.987 34.34V50H130.337ZM155.708 50V29.99H169.418V33.74H160.568V38.09H168.248V41.87H160.568V46.25H169.418V50H155.708ZM173.491 50V29.99H177.631L187.921 43.85L186.481 46.85V29.99H190.951V50H187.291L176.821 36.32L177.961 34.13V50H173.491ZM199.4 50V33.74H193.79V29.99H209.96V33.74H204.26V50H199.4ZM221.601 50.42C219.621 50.42 217.901 50.05 216.441 49.31C214.981 48.55 213.841 47.4 213.021 45.86C212.221 44.32 211.821 42.37 211.821 40.01C211.821 36.59 212.681 34 214.401 32.24C216.121 30.48 218.521 29.6 221.601 29.6C223.581 29.6 225.301 29.98 226.761 30.74C228.241 31.48 229.381 32.61 230.181 34.13C230.981 35.65 231.381 37.6 231.381 39.98C231.381 43.42 230.521 46.02 228.801 47.78C227.101 49.54 224.701 50.42 221.601 50.42ZM221.601 46.43C222.621 46.43 223.481 46.22 224.181 45.8C224.901 45.38 225.441 44.7 225.801 43.76C226.181 42.8 226.371 41.54 226.371 39.98C226.371 38.4 226.181 37.14 225.801 36.2C225.441 35.26 224.901 34.59 224.181 34.19C223.481 33.77 222.621 33.56 221.601 33.56C220.581 33.56 219.721 33.77 219.021 34.19C218.321 34.61 217.781 35.29 217.401 36.23C217.041 37.17 216.861 38.44 216.861 40.04C216.861 41.62 217.041 42.88 217.401 43.82C217.781 44.74 218.321 45.41 219.021 45.83C219.721 46.23 220.581 46.43 221.601 46.43ZM234.81 50V29.99H244.56C246.82 29.99 248.59 30.52 249.87 31.58C251.15 32.62 251.79 34.21 251.79 36.35C251.79 37.23 251.61 38.1 251.25 38.96C250.89 39.8 250.36 40.53 249.66 41.15C248.96 41.75 248.08 42.14 247.02 42.32L246.72 40.67L252.81 50H246.63L241.62 41.27L243.78 43.1H239.67V50H234.81ZM239.67 39.53H243.75C244.61 39.53 245.29 39.3 245.79 38.84C246.29 38.38 246.54 37.62 246.54 36.56C246.54 35.64 246.31 34.94 245.85 34.46C245.41 33.98 244.78 33.74 243.96 33.74H239.67V39.53Z" fill="#D63362"/>
<path d="M55.7 15H14.3C13.03 15 12 16.03 12 17.3V58.7C12 59.97 13.03 61 14.3 61H55.7C56.97 61 58 59.97 58 58.7V17.3C58 16.03 56.97 15 55.7 15Z" fill="#D63362"/>
<path d="M28.87 27.78H24.78V48.21H28.87V27.78Z" fill="white"/>
<path d="M45.23 44.13H32.96V48.22H45.23V44.13Z" fill="white"/>
<path d="M45.23 35.96H32.96V40.05H45.23V35.96Z" fill="white"/>
<path d="M45.23 27.77H32.96V31.86H45.23V27.77Z" fill="white"/>
</svg>
