<svg width="265" height="80" viewBox="0 0 265 80" fill="none" xmlns="http://www.w3.org/2000/svg">
<rect x="2.5" y="2.5" width="260" height="75" stroke="#189AB6" stroke-width="5"/>
<path d="M112.62 54.504C111.396 54.504 110.292 54.444 109.308 54.324C108.324 54.204 107.412 54.024 106.572 53.784C105.732 53.544 104.916 53.232 104.124 52.848V47.304C105.228 48.192 106.476 48.864 107.868 49.32C109.26 49.776 110.58 50.004 111.828 50.004C112.932 50.004 113.772 49.8 114.348 49.392C114.948 48.96 115.248 48.312 115.248 47.448C115.248 46.8 114.972 46.284 114.42 45.9C113.892 45.492 113.184 45.144 112.296 44.856C111.408 44.544 110.412 44.196 109.308 43.812C108.612 43.596 107.928 43.32 107.256 42.984C106.584 42.648 105.984 42.228 105.456 41.724C104.928 41.196 104.508 40.56 104.196 39.816C103.884 39.072 103.728 38.16 103.728 37.08C103.728 36.096 103.908 35.148 104.268 34.236C104.628 33.324 105.18 32.508 105.924 31.788C106.692 31.068 107.664 30.504 108.84 30.096C110.016 29.664 111.396 29.448 112.98 29.448C113.964 29.448 114.828 29.508 115.572 29.628C116.34 29.748 117.072 29.928 117.768 30.168C118.464 30.384 119.172 30.672 119.892 31.032V36.648C119.34 36.192 118.716 35.772 118.02 35.388C117.348 34.98 116.64 34.644 115.896 34.38C115.152 34.116 114.372 33.972 113.556 33.948C112.836 33.924 112.176 33.996 111.576 34.164C110.976 34.332 110.508 34.608 110.172 34.992C109.836 35.352 109.668 35.82 109.668 36.396C109.668 37.068 109.872 37.596 110.28 37.98C110.688 38.364 111.252 38.688 111.972 38.952C112.692 39.192 113.496 39.456 114.384 39.744C115.368 40.032 116.268 40.356 117.084 40.716C117.924 41.052 118.656 41.484 119.28 42.012C119.904 42.54 120.384 43.188 120.72 43.956C121.056 44.724 121.224 45.648 121.224 46.728C121.224 48.168 120.888 49.488 120.216 50.688C119.544 51.864 118.572 52.8 117.3 53.496C116.028 54.168 114.468 54.504 112.62 54.504ZM135.953 54.468C132.113 54.468 129.173 53.46 127.133 51.444C125.117 49.404 124.109 46.26 124.109 42.012C124.109 37.884 125.081 34.764 127.025 32.652C128.969 30.516 131.945 29.448 135.953 29.448C137.225 29.448 138.509 29.604 139.805 29.916C141.101 30.228 142.361 30.66 143.585 31.212V36.288C142.337 35.472 141.137 34.884 139.985 34.524C138.833 34.164 137.753 33.984 136.745 33.984C135.329 33.984 134.129 34.236 133.145 34.74C132.185 35.244 131.441 36.084 130.913 37.26C130.409 38.436 130.157 40.02 130.157 42.012C130.157 44.004 130.409 45.576 130.913 46.728C131.441 47.88 132.209 48.708 133.217 49.212C134.249 49.692 135.509 49.932 136.997 49.932C137.885 49.932 138.893 49.764 140.021 49.428C141.149 49.092 142.337 48.516 143.585 47.7V52.776C142.913 53.112 142.145 53.412 141.281 53.676C140.441 53.916 139.553 54.108 138.617 54.252C137.705 54.396 136.817 54.468 135.953 54.468ZM148.009 54V29.988H159.709C162.421 29.988 164.545 30.624 166.081 31.896C167.617 33.144 168.385 35.052 168.385 37.62C168.385 38.676 168.169 39.72 167.737 40.752C167.305 41.76 166.669 42.636 165.829 43.38C164.989 44.1 163.933 44.568 162.661 44.784L162.301 42.804L169.609 54H162.193L156.181 43.524L158.773 45.72H153.841V54H148.009ZM153.841 41.436H158.737C159.769 41.436 160.585 41.16 161.185 40.608C161.785 40.056 162.085 39.144 162.085 37.872C162.085 36.768 161.809 35.928 161.257 35.352C160.729 34.776 159.973 34.488 158.989 34.488H153.841V41.436ZM184.585 54.756C180.889 54.756 178.117 53.976 176.269 52.416C174.445 50.832 173.533 48.372 173.533 45.036V29.988H179.617V44.784C179.617 46.632 179.989 48 180.733 48.888C181.477 49.776 182.665 50.22 184.297 50.22C185.785 50.22 186.937 49.776 187.753 48.888C188.593 48 189.013 46.632 189.013 44.784V29.988H194.557V45.036C194.557 47.268 194.125 49.104 193.261 50.544C192.421 51.96 191.257 53.016 189.769 53.712C188.281 54.408 186.553 54.756 184.585 54.756ZM199.654 54V29.988H205.594L213.838 41.472L210.67 41.58L219.202 29.988H224.998V54H219.166V34.38L220.318 36.252L212.11 47.16L203.974 36.072L205.234 35.208V54H199.654Z" fill="#189AB6"/>
<path d="M49.968 39.2554C50.0624 38.8313 50.1747 38.412 50.305 37.9974C50.4353 37.5834 50.583 37.1751 50.7476 36.7732C50.9123 36.3716 51.0941 35.9772 51.2925 35.5911C51.4908 35.2045 51.7055 34.8273 51.936 34.4591C52.158 34.1057 52.3928 33.7602 52.6396 33.4237C52.887 33.0876 53.1467 32.7607 53.4182 32.4437C53.6893 32.1267 53.9725 31.8197 54.2669 31.5232C54.5608 31.2271 54.8657 30.942 55.181 30.6687C54.9394 30.8781 54.7041 31.0944 54.4752 31.3175C54.2468 31.5406 54.0242 31.7706 53.8085 32.0064C53.5928 32.2422 53.3844 32.4843 53.1824 32.7327C52.9809 32.9806 52.7863 33.2344 52.5995 33.4933C52.7319 33.3087 52.8685 33.1273 53.0104 32.9495C53.1523 32.7718 53.2984 32.5977 53.4493 32.4273C53.5996 32.257 53.7547 32.0908 53.914 31.9289C54.0733 31.7664 54.2368 31.6087 54.4045 31.4547C54.5739 31.3001 54.7469 31.1493 54.9241 31.0037C55.1008 30.8576 55.2817 30.7162 55.4658 30.5796C55.6499 30.443 55.8377 30.3111 56.0286 30.184C56.2196 30.0569 56.4137 29.9345 56.6109 29.8174C56.5413 29.8865 56.4706 29.9545 56.3989 30.0215C56.3272 30.0885 56.2544 30.1545 56.1811 30.2193C56.1077 30.2842 56.0334 30.348 55.9579 30.4113C55.883 30.4741 55.8066 30.5358 55.7295 30.597C55.4083 30.8729 55.134 31.1487 55.0913 31.3196C54.6668 31.7033 54.2608 32.1071 53.875 32.5297C53.4888 32.9516 53.1228 33.3921 52.7783 33.8494C52.4345 34.3067 52.1122 34.7798 51.8125 35.2672C51.5135 35.7551 51.2376 36.2568 50.986 36.771C50.7333 37.2869 50.5076 37.816 50.3087 38.355C50.1104 38.8941 49.9395 39.4432 49.7971 39.9997C49.5125 41.1139 49.3424 42.2542 49.2897 43.4029C49.2406 43.2131 49.2047 43.02 49.1826 42.8248C49.1604 42.6297 49.152 42.4334 49.1578 42.2372C49.1683 41.8444 49.234 41.455 49.3529 41.0805C49.5476 40.4264 49.8208 39.872 49.968 39.2554ZM61.287 27.8378C60.8592 27.9728 60.4361 28.1224 60.0184 28.2861C60.1202 28.2392 60.2236 28.1944 60.3275 28.1522C60.4314 28.11 60.5364 28.0704 60.6424 28.033C60.7484 27.9955 60.855 27.9607 60.9626 27.928C61.0702 27.8953 61.1783 27.8652 61.287 27.8378ZM66.6308 57.8372C67.0997 57.786 67.566 57.7143 68.0096 57.6425C67.8967 57.6694 67.7828 57.6932 67.6689 57.7148C67.5544 57.7359 67.4399 57.7549 67.3244 57.7713C67.2094 57.7871 67.0939 57.8008 66.9784 57.8119C66.8629 57.8229 66.7468 57.8314 66.6308 57.8372M50.6922 45.1784L50.8979 45.9443C50.9718 46.4443 51.0699 46.9407 51.1922 47.4318C51.3141 47.9223 51.4591 48.4071 51.6279 48.8839C51.965 49.8383 52.3933 50.7579 52.907 51.6299C52.7553 51.3858 52.6094 51.1382 52.4692 50.8872C52.3295 50.6361 52.195 50.3819 52.0668 50.1245C51.9391 49.8671 51.8168 49.6071 51.7012 49.3438C51.5852 49.0812 51.4755 48.8153 51.3721 48.5468C51.2687 48.2784 51.1769 48.0057 51.0962 47.7293C51.0161 47.4529 50.9475 47.1733 50.8905 46.8916C50.8336 46.6094 50.7882 46.3251 50.7555 46.0392C50.7223 45.7534 50.7012 45.4659 50.6922 45.1784M51.0134 43.0337C51.0161 42.5474 51.0503 42.0616 51.1152 41.58C51.1801 41.0979 51.2756 40.6205 51.4016 40.1511C51.5272 39.6811 51.6833 39.2201 51.8679 38.7702C52.0525 38.3208 52.2662 37.883 52.5072 37.4605C52.2778 37.8882 52.0731 38.3287 51.8943 38.7797C51.716 39.2312 51.5636 39.6922 51.438 40.1606C51.312 40.6295 51.2139 41.1047 51.1427 41.5847C51.072 42.0647 51.0287 42.5484 51.0134 43.0337M76.3721 49.453C76.3336 49.4393 76.3225 49.3966 76.3241 49.3454C76.3278 49.3349 76.3315 49.3233 76.3341 49.3122C76.3368 49.3006 76.3394 49.2895 76.341 49.2779C76.3426 49.2663 76.3436 49.2547 76.3436 49.2426C76.3442 49.231 76.3442 49.2194 76.3431 49.2078C76.4338 49.0738 76.5225 48.9382 76.6084 48.8006C76.6939 48.6634 76.7772 48.5242 76.8579 48.3839C76.9381 48.2435 77.0162 48.1011 77.0911 47.9582C77.1665 47.8147 77.2388 47.6697 77.3084 47.5235C77.3047 47.5642 77.2999 47.6042 77.2941 47.6443C77.2889 47.685 77.2825 47.725 77.2757 47.7651C77.2688 47.8052 77.2614 47.8448 77.253 47.8849C77.2446 47.9244 77.2356 47.964 77.2256 48.0035C77.1929 48.0631 77.1591 48.1222 77.1238 48.1802C77.0534 48.2968 76.9781 48.4103 76.898 48.5205C76.8579 48.5758 76.8168 48.6302 76.7746 48.6835C76.7329 48.7425 76.6928 48.8027 76.6548 48.8638C76.6169 48.9256 76.5815 48.9883 76.5478 49.0522C76.5145 49.1165 76.4834 49.1814 76.4544 49.2478C76.4254 49.3138 76.399 49.3813 76.3748 49.4493M66.1139 57.8688L66.0643 57.8899C65.9029 57.901 65.7425 57.9116 65.5843 57.9174L65.5263 57.9036C65.722 57.8899 65.9166 57.8773 66.1139 57.8688M75.9116 50.1387C75.8948 50.1293 75.8779 50.1213 75.8599 50.114C75.8425 50.1071 75.8241 50.1013 75.8056 50.0971C75.7872 50.0929 75.7682 50.0897 75.7492 50.0881C75.7302 50.0865 75.7112 50.0865 75.6922 50.0876C75.9196 49.8117 76.1363 49.5169 76.3389 49.2173L76.3341 49.2494C76.3326 49.26 76.331 49.2705 76.3299 49.2811C76.3283 49.2922 76.3273 49.3027 76.3262 49.3133C76.3252 49.3243 76.3246 49.3349 76.3241 49.3454C76.2508 49.5828 75.9834 49.8618 75.9101 50.1387M69.1584 54.3585C68.9464 54.426 68.7929 54.6217 68.6979 54.6866C68.1051 54.7267 67.5201 54.7293 66.8444 54.724C66.7426 54.7736 66.5232 54.7916 66.3164 54.877C66.1893 54.819 66.0558 54.772 65.915 54.724C66.2958 54.7283 66.6772 54.7146 67.0565 54.6829C67.4362 54.6513 67.8144 54.6017 68.1895 54.5347C68.5645 54.4677 68.9364 54.3833 69.3035 54.2815C69.6706 54.1797 70.0324 54.061 70.3885 53.9255C70.2899 53.9703 70.1902 54.0135 70.0899 54.0542C69.9892 54.0953 69.8879 54.1333 69.7856 54.1697C69.6833 54.2055 69.5799 54.2398 69.476 54.271C69.3726 54.3026 69.2676 54.3316 69.1627 54.3585" fill="#415870"/>
<path d="M62.3435 30.1429C63.4701 29.7789 64.7582 29.6671 66.0115 29.7156C67.2653 29.7636 68.4938 29.9472 69.6632 30.0669C68.392 29.5621 66.7605 29.2783 65.388 29.205C64.0161 29.1317 62.9226 29.1855 62.6373 28.9096C62.3519 28.6338 63.3378 28.3579 64.7055 28.3057C64.888 28.3004 65.0705 28.2988 65.2525 28.3009C65.435 28.303 65.617 28.3088 65.7995 28.3178C65.9814 28.3268 66.1634 28.3394 66.3449 28.3558C66.5263 28.3716 66.7078 28.3917 66.8887 28.4143C67.6208 28.503 68.3171 28.6406 68.8815 28.7482C68.5961 28.62 68.5961 28.62 68.3065 28.5003C68.5972 28.62 68.8815 28.744 69.1626 28.7292C68.8889 28.6072 68.6102 28.4968 68.3271 28.3985C68.2327 28.3658 68.1383 28.3342 68.0428 28.3041C67.6377 28.1664 67.2569 28.0435 67.0902 27.9248C67.2817 27.8848 67.4731 27.8531 67.6678 27.8215C66.8903 27.4791 65.6945 27.2697 64.4766 27.2354C63.2592 27.2006 62.0275 27.3098 61.1255 27.3235C61.6857 27.2597 62.2475 27.2164 62.8108 27.1943C63.3736 27.1716 63.9375 27.1706 64.5008 27.1901C65.0636 27.2096 65.6259 27.2502 66.1861 27.3114C66.7463 27.3731 67.3038 27.4554 67.8582 27.5577C68.4521 27.6706 69.0408 27.813 69.621 27.9839C70.2012 28.1543 70.7725 28.3542 71.3332 28.581C71.8933 28.8084 72.4424 29.0637 72.9778 29.3448C73.5132 29.6263 74.0343 29.9342 74.5391 30.2673C75.065 30.6144 75.5709 30.9916 76.0535 31.3967C76.5361 31.8018 76.995 32.2338 77.4286 32.6916C77.8617 33.1489 78.2683 33.631 78.6465 34.1353C79.0242 34.6395 79.3734 35.1649 79.6915 35.7087C80.0074 36.251 80.2907 36.8117 80.5396 37.3877C80.7886 37.9637 81.0022 38.5539 81.18 39.1558C81.3583 39.7576 81.4996 40.3695 81.6041 40.9882C81.7085 41.6069 81.776 42.2314 81.8056 42.8581C81.8989 44.192 81.8457 45.5313 81.6468 46.8531C81.4474 48.175 81.1035 49.471 80.6214 50.7179C80.1393 51.9643 79.5211 53.1543 78.7789 54.2657C78.0368 55.3771 77.1744 56.4041 76.208 57.3271C76.063 57.4479 75.9142 57.565 75.7629 57.6779C75.6115 57.7913 75.4575 57.9005 75.3003 58.0049C74.9859 58.2151 74.6605 58.4083 74.3255 58.5836C74.1203 58.6938 73.913 58.7993 73.7031 58.9006C73.4932 59.0013 73.2811 59.0973 73.067 59.1886C72.8523 59.2798 72.636 59.3658 72.4176 59.447C72.1998 59.5283 71.9798 59.6047 71.7578 59.676C68.978 60.7905 65.8875 61.1824 62.8483 60.9076C59.6159 60.4941 56.5861 59.0361 54.1603 56.8651C51.735 54.6935 49.8619 51.7971 48.8239 48.5015C48.6097 47.8464 48.5865 47.0087 48.7273 46.7619C48.7959 46.6379 48.8993 46.6574 49.0385 46.9001C49.1778 47.1427 49.3571 47.6174 49.6441 48.3786C49.892 49.0031 50.1715 49.6144 50.4806 50.211C50.7892 50.8071 51.1279 51.3878 51.495 51.9506C51.862 52.5129 52.2567 53.0567 52.6776 53.58C53.099 54.1032 53.5458 54.6054 54.0168 55.0838C53.8348 55.0442 53.5384 54.7736 53.242 54.4535C53.1755 54.377 53.1085 54.301 53.0399 54.2261C52.9031 54.0764 52.7624 53.9303 52.618 53.7878C52.5457 53.7171 52.4724 53.647 52.398 53.5779C52.5288 53.7751 52.6649 53.9698 52.8057 54.1602C52.9466 54.3511 53.0927 54.5379 53.243 54.7214C53.3933 54.905 53.5479 55.0843 53.7077 55.26C53.867 55.4351 54.0311 55.6065 54.1988 55.7737C54.366 55.9394 54.5369 56.1008 54.712 56.2574C54.8871 56.4146 55.0665 56.567 55.2495 56.7147C55.432 56.8624 55.6187 57.0054 55.8092 57.1436C55.9996 57.2818 56.1932 57.4152 56.3904 57.5434C55.8356 57.1824 55.3023 56.7893 54.7932 56.3661C54.5385 56.1546 54.29 55.9362 54.0485 55.7104C53.8063 55.4847 53.5711 55.2515 53.3427 55.0121C53.6397 55.3249 53.9488 55.6266 54.2684 55.9161C54.5875 56.2057 54.9177 56.4837 55.258 56.749C55.5982 57.0143 55.9479 57.267 56.3066 57.5065C56.665 57.7464 57.0324 57.9727 57.4079 58.1848C58.1913 58.6279 59.0109 59.0034 59.858 59.3073C60.2811 59.4592 60.7104 59.5937 61.1451 59.7092C61.5797 59.8247 62.0191 59.9218 62.4621 60.0004C63.1088 60.1243 63.6964 60.3738 64.3816 60.541C64.5778 60.5927 64.7772 60.6312 64.9782 60.6555C65.1797 60.6797 65.3822 60.6903 65.5848 60.6866C65.7879 60.6834 65.9899 60.666 66.1903 60.6344C66.3902 60.6033 66.5886 60.5579 66.7827 60.4993C66.1882 60.5004 65.5937 60.4709 65.0025 60.4113C64.411 60.3511 63.823 60.261 63.2407 60.1412C62.6585 60.0208 62.0828 59.8708 61.5159 59.6918C60.9488 59.5124 60.3918 59.3041 59.8459 59.0678C59.3026 58.832 58.7709 58.5709 58.2524 58.2845C57.7339 57.9986 57.2291 57.6874 56.7407 57.353C56.2518 57.0186 55.7792 56.6611 55.3244 56.2817C54.8697 55.9019 54.4335 55.501 54.0168 55.0801C54.0194 55.0801 54.0216 55.0806 54.0237 55.0806H54.0379C54.04 55.0806 54.0421 55.0801 54.0448 55.0801C53.6861 54.7241 53.3448 54.3517 53.0215 53.964C52.6981 53.5761 52.3931 53.1734 52.1074 52.7571C51.8216 52.3407 51.5553 51.9112 51.3093 51.4701C51.064 51.0286 50.8388 50.576 50.6357 50.114C50.9116 50.681 51.2481 51.2343 51.4987 51.7322C50.1694 49.0838 49.4494 46.2281 49.4748 43.3412C49.5185 43.8529 49.5829 44.3624 49.6673 44.8693C49.7522 45.3757 49.8572 45.8789 49.9817 46.3768C50.1067 46.8753 50.2517 47.3685 50.4158 47.8548C50.5803 48.3417 50.7639 48.8211 50.9664 49.2932C51.3776 50.2536 51.8755 51.1745 52.4539 52.0445C52.743 52.4791 53.0515 52.9006 53.3786 53.3073C53.7056 53.7143 54.0511 54.1061 54.414 54.4814C55.5075 55.6137 56.7611 56.5796 58.1348 57.3482C58.5921 57.6041 59.0615 57.8372 59.5415 58.0471C60.4784 58.4553 61.455 58.7654 62.4558 58.9723C62.9559 59.0762 63.4612 59.1538 63.9691 59.2049C64.4776 59.2566 64.9877 59.2814 65.4988 59.2804C64.3843 59.0857 63.103 58.9533 61.8745 58.6537C60.6461 58.3546 59.4904 57.8968 58.7345 57.2665C59.5436 57.6842 60.3863 58.0334 61.2537 58.3103C62.121 58.5876 63.0101 58.7914 63.9116 58.9196C64.8131 59.0483 65.724 59.1005 66.6344 59.0768C67.5443 59.0525 68.4511 58.9523 69.3446 58.7766L68.5602 59.0124C68.8567 58.9892 69.1521 58.9533 69.4459 58.9048C69.7396 58.8568 70.0312 58.7967 70.3199 58.7244C70.6084 58.6516 70.8943 58.5672 71.176 58.4712C71.4571 58.3747 71.7351 58.2671 72.0073 58.1479C72.281 58.0281 72.5516 57.9021 72.819 57.7702C73.0865 57.6378 73.3507 57.4991 73.6113 57.354C73.8724 57.209 74.1293 57.0581 74.383 56.9004C74.6367 56.7432 74.8867 56.5802 75.1325 56.4109C75.3061 56.2965 75.4786 56.1804 75.6495 56.058L75.1325 56.4109C74.6937 56.6984 74.2411 56.9642 73.7769 57.2079C73.3122 57.4516 72.8365 57.6726 72.3507 57.8704C71.8648 58.0682 71.3701 58.2423 70.8674 58.3921C70.3647 58.5424 69.8552 58.668 69.3404 58.7682C70.2423 58.4923 71.1913 58.1959 72.3011 57.756C71.657 57.8936 70.7746 58.1558 69.8726 58.3283C69.583 58.4026 69.2903 58.4686 68.9965 58.5255C68.7027 58.5825 68.4067 58.6305 68.1098 58.6701C67.8133 58.7091 67.5153 58.7397 67.2162 58.7613C66.9177 58.7824 66.6186 58.7951 66.319 58.7988C66.7595 58.7824 67.1983 58.7429 67.634 58.6796C68.5066 58.5531 69.3631 58.3336 70.1891 58.025C70.6016 57.8704 71.0056 57.6943 71.3996 57.4965C69.0772 58.2486 66.5369 58.564 64.1332 58.1864C64.4634 58.2196 64.7941 58.2418 65.1259 58.2528C65.4571 58.2639 65.7889 58.2634 66.1202 58.2518C66.4519 58.2402 66.7827 58.2175 67.1129 58.1837C67.4425 58.15 67.7711 58.1046 68.0982 58.0482C68.6573 57.9828 69.2127 57.8852 69.7613 57.7554C70.8587 57.4962 71.9226 57.1114 72.9319 56.6087C73.4362 56.3571 73.9252 56.077 74.3972 55.7695L74.1862 55.9256C74.3324 55.8302 74.4732 55.7268 74.614 55.626C74.7997 55.4994 74.9827 55.3681 75.1626 55.2325C75.3425 55.0975 75.5192 54.9577 75.6927 54.8143C75.8657 54.6703 76.0361 54.5226 76.2022 54.3712C76.3684 54.2193 76.5314 54.0637 76.6907 53.9044C77.1017 53.4655 77.4657 52.9848 77.7767 52.4702C77.8807 52.2987 77.9782 52.1242 78.0695 51.9459L78.2916 51.6178C78.2035 51.8604 78.1871 52.0023 78.4888 51.6178C78.6534 51.401 78.809 51.1773 78.9551 50.9479C79.1012 50.7184 79.2378 50.4832 79.365 50.2421C79.4921 50.0016 79.6092 49.7558 79.7163 49.5058C79.8228 49.2558 79.9199 49.001 80.0058 48.7431C80.3893 47.6781 80.6705 46.5535 80.9711 45.3783C81.1267 44.7591 81.1642 43.894 81.0872 42.9757C81.0972 42.9346 81.104 42.8924 81.1067 42.8502C81.1098 42.808 81.1093 42.7652 81.1051 42.723C81.1009 42.6808 81.093 42.6392 81.0819 42.598C81.0703 42.5574 81.0555 42.5173 81.037 42.4788C81.0154 42.2815 80.9875 42.0832 80.9574 41.8859C80.9458 41.7652 80.9316 41.6449 80.9147 41.5246C80.8978 41.4044 80.8788 41.2846 80.8566 41.1654C80.8345 41.0462 80.8097 40.9275 80.7823 40.8094C80.7548 40.6912 80.7253 40.5736 80.6926 40.457C80.7875 40.9201 80.883 41.4001 80.9574 41.8859L81.0123 42.4292C80.9896 42.3902 80.969 42.3501 80.9505 42.3084C80.9321 42.2673 80.9157 42.2251 80.902 42.1819C80.8883 42.1386 80.8767 42.0948 80.8677 42.0505C80.8588 42.0062 80.8524 41.9614 80.8482 41.916C80.8814 42.3375 80.8967 42.7594 80.8941 43.1819C80.8915 43.6039 80.8709 44.0264 80.8329 44.4468C80.7949 44.8672 80.7385 45.286 80.6652 45.7022C80.5913 46.1178 80.5006 46.5303 80.3919 46.9386C80.2812 47.3537 80.1541 47.7641 80.0101 48.1687C79.8666 48.5737 79.7062 48.9725 79.5306 49.3644C79.3549 49.7563 79.1635 50.1409 78.9567 50.5175C78.7499 50.8936 78.5279 51.2617 78.2916 51.6204C78.3607 51.4189 78.4735 51.1446 78.5052 51.0228C78.3744 51.3377 78.2298 51.6436 78.0695 51.9485C77.9102 52.1785 77.7451 52.4042 77.5742 52.6258C77.4033 52.8473 77.2266 53.0646 77.0451 53.2772C76.8632 53.4898 76.6759 53.6981 76.4839 53.9012C76.2919 54.1048 76.0941 54.3031 75.8921 54.4962C75.9448 54.4392 75.9955 54.3807 76.0445 54.3211C76.1427 54.2011 76.2337 54.0756 76.3172 53.945C76.3589 53.8801 76.399 53.8136 76.437 53.7461C76.1557 54.0247 75.8642 54.2926 75.5629 54.5495C75.2616 54.806 74.9509 55.0512 74.6314 55.2848C74.3118 55.5179 73.9832 55.7389 73.6472 55.9478C73.3107 56.1565 72.9666 56.3525 72.6154 56.5354C72.262 56.719 71.9012 56.8888 71.5341 57.0444C71.1675 57.2 70.7946 57.3414 70.4169 57.4685C70.0393 57.5956 69.6563 57.708 69.2702 57.805C68.8836 57.9026 68.4938 57.9849 68.1008 58.0524C67.3671 58.1379 66.6286 58.1684 65.8907 58.1442C65.1528 58.1199 64.4175 58.0413 63.6912 57.9079C62.9648 57.7749 62.2494 57.5882 61.5507 57.3493C60.852 57.1102 60.1719 56.8197 59.5162 56.48C59.8659 56.7016 60.2267 56.9041 60.597 57.0877C60.9678 57.2712 61.3481 57.4347 61.7358 57.5782C62.124 57.7212 62.5191 57.8441 62.92 57.9459C63.3209 58.0471 63.727 58.1273 64.1363 58.1864C63.5688 58.1296 63.0052 58.0391 62.4484 57.9153C61.8916 57.792 61.3425 57.6356 60.8043 57.4469C60.2659 57.2587 59.7393 57.0385 59.2272 56.7875C58.7149 56.5368 58.2181 56.2559 57.7392 55.9462C57.2611 55.6388 56.8025 55.3019 56.3662 54.9377C55.9299 54.5732 55.5169 54.1823 55.1292 53.7667C54.7416 53.3511 54.3802 52.9117 54.0469 52.4512C53.7135 51.9907 53.4092 51.5102 53.1359 51.0122C53.7483 51.5956 54.5438 52.3721 55.0965 52.5377C55.1741 52.4243 54.3839 51.3113 54.9383 51.8878C55.9848 52.8906 56.9021 53.6881 57.7429 54.2425C58.5842 54.7969 59.348 55.0812 60.0268 54.9598C60.1645 54.906 59.6571 54.3627 59.3042 53.84C58.9513 53.3168 58.7234 52.8436 59.1301 53.0372C59.3812 53.1823 59.6365 53.3205 59.896 53.4507C60.155 53.5805 60.4182 53.7029 60.6846 53.8173C61.2179 54.0459 61.7645 54.2422 62.3213 54.4055C62.42 54.4434 62.5191 54.4798 62.6193 54.5141C62.719 54.5484 62.8198 54.5806 62.921 54.6112C63.0223 54.6413 63.1241 54.6697 63.2265 54.6961C63.3288 54.7225 63.4316 54.7473 63.535 54.7694C63.5857 54.7969 63.6854 54.7694 63.8109 54.7378C65.3137 54.9915 66.7605 54.8939 67.5591 54.8222C67.8566 54.8011 68.152 54.761 68.4458 54.7156C68.4816 54.7172 68.518 54.7198 68.5544 54.7241C68.5903 54.7283 68.6262 54.7341 68.662 54.7409C68.6974 54.7478 68.7327 54.7562 68.7681 54.7663C68.8029 54.7763 68.8377 54.7874 68.8715 54.8C69.0413 54.6966 69.2122 54.6027 69.3831 54.5242C69.5756 54.4751 69.7666 54.4208 69.9559 54.3617C70.1453 54.3021 70.3331 54.2377 70.5193 54.1681C70.7049 54.098 70.889 54.0236 71.0705 53.9434C71.2525 53.8638 71.4318 53.7788 71.609 53.6897C71.7145 53.6533 71.8195 53.6158 71.9234 53.5763C72.0278 53.5367 72.1312 53.4956 72.2341 53.4523C72.3369 53.4096 72.4393 53.3648 72.5405 53.3184C72.6418 53.2719 72.742 53.2234 72.8417 53.1733C72.8032 53.1348 72.7041 53.1184 72.7441 53.0272C72.9493 52.8906 73.1503 52.7466 73.346 52.5962C73.5417 52.4459 73.7326 52.2898 73.9183 52.1268C74.104 51.9638 74.2838 51.795 74.4584 51.6204C74.633 51.4458 74.8018 51.2654 74.9643 51.0798C75.0371 51.017 75.1109 50.9558 75.1858 50.8957C75.2607 50.8355 75.3367 50.7765 75.4137 50.719C75.4907 50.6615 75.5688 50.6056 75.6473 50.5507C75.7265 50.4959 75.8061 50.4421 75.8868 50.3898C76.0134 49.808 76.4507 49.0411 76.8521 48.1512C77.2535 47.2614 77.6037 46.264 77.715 45.4047H77.6971C77.7372 45.189 77.7709 44.9722 77.7989 44.7543C77.8269 44.5365 77.849 44.3181 77.8654 44.0997C77.8817 43.8808 77.8917 43.6614 77.8965 43.442C77.9007 43.2226 77.8991 43.0031 77.8917 42.7837C77.9302 42.636 77.9745 42.4925 78.0294 42.3564C77.9345 42.1423 77.9044 41.9123 77.8506 41.8047C77.82 41.0926 77.7857 40.4802 77.7124 39.861C77.6422 39.7645 77.4365 39.6083 77.3569 39.3889C77.3231 39.2802 77.2873 39.1726 77.2493 39.0656C77.2108 38.9585 77.1707 38.8519 77.128 38.7464C77.0852 38.6409 77.0399 38.5365 76.9929 38.4331C76.946 38.3297 76.8964 38.2269 76.8452 38.1256C76.7925 38.0053 76.7376 37.8856 76.6817 37.7669C76.6253 37.6483 76.5673 37.5305 76.5077 37.4135C76.448 37.2969 76.3869 37.1804 76.3236 37.0654C76.2608 36.9504 76.1959 36.8359 76.1295 36.7225C75.9033 36.3356 75.6575 35.9604 75.3931 35.5985C75.1288 35.2364 74.846 34.8882 74.546 34.5552C74.2459 34.2218 73.9288 33.9043 73.5965 33.6036C73.2642 33.3029 72.9166 33.0192 72.5548 32.7544C72.5504 32.7165 72.5513 32.6781 72.5574 32.6404C72.5606 32.6214 72.5653 32.603 72.5711 32.585C72.5769 32.5671 72.5838 32.5492 72.5922 32.5323C72.3026 32.4643 71.9967 32.2026 71.7456 32.1346C71.7994 32.1346 71.8406 32.1225 71.8517 32.084C71.7799 32.0607 71.7087 32.0349 71.638 32.0075C71.5679 31.98 71.4983 31.95 71.4302 31.9178C71.3616 31.8856 71.2941 31.8519 71.2277 31.8155C71.1617 31.7791 71.0963 31.7406 71.0325 31.7005C70.9745 31.6588 70.9159 31.6187 70.8563 31.5797C70.7967 31.5407 70.7361 31.5027 70.6749 31.4663C70.6137 31.4299 70.5514 31.3945 70.4892 31.3608C70.4264 31.327 70.3631 31.2943 70.2988 31.2632C70.2576 31.2548 70.216 31.2469 70.1743 31.24C70.1321 31.2331 70.0904 31.2268 70.0482 31.221C70.0066 31.2157 69.9644 31.211 69.9222 31.2068C69.88 31.2025 69.8378 31.1994 69.7956 31.1967C69.7186 31.1635 69.641 31.1361 69.564 31.1044C68.8329 30.539 67.9352 30.4699 66.981 30.3829C66.7399 30.3417 66.4973 30.3074 66.2541 30.28C66.011 30.2526 65.7668 30.232 65.5225 30.2183C65.2783 30.204 65.0336 30.1972 64.7888 30.1972C64.5441 30.1972 64.2993 30.204 64.0546 30.2172C63.2755 30.2753 62.9348 30.136 62.3588 30.1418" fill="#415870"/>
<path d="M77.405 47.311C77.4931 47.116 77.5763 46.9189 77.6544 46.7197C77.732 46.5203 77.8048 46.3188 77.8728 46.1163C78.0077 45.71 78.1217 45.2972 78.2146 44.8793C78.0907 45.7866 77.9899 46.6432 77.405 47.311ZM58.7689 52.5029C58.724 52.4232 58.6781 52.3436 58.6301 52.265C58.5827 52.1864 58.5336 52.1089 58.483 52.0324C58.4323 51.9554 58.3807 51.8799 58.3274 51.805C58.2741 51.7301 58.2198 51.6558 58.1639 51.583C58.5294 51.9322 58.9181 52.2566 59.3269 52.5541C59.7363 52.851 60.1646 53.1206 60.6097 53.36C61.0549 53.6 61.5159 53.8094 61.9891 53.9877C62.4622 54.1655 62.947 54.3116 63.4396 54.4245V54.4413C62.6273 54.3031 61.6858 53.9213 60.865 53.5003C60.0448 53.0799 59.3248 52.6395 58.7689 52.5029V52.5029ZM76.3184 49.3454C76.3189 49.3349 76.3199 49.3243 76.321 49.3133L76.3242 49.2811C76.3257 49.2705 76.3268 49.26 76.3284 49.2494C76.33 49.2389 76.3315 49.2278 76.3337 49.2173C76.3352 49.2524 76.332 49.2875 76.3242 49.3217C76.3215 49.3333 76.3178 49.3444 76.3141 49.3555M53.7094 51.1415L53.5812 50.9305C53.7608 51.1892 53.9477 51.4427 54.1419 51.6906C54.2384 51.8145 54.3371 51.9369 54.4378 52.0582C54.538 52.1795 54.6398 52.2993 54.7437 52.4174C54.6467 52.3204 54.5523 52.2212 54.4605 52.1194C54.3687 52.0176 54.2796 51.9132 54.1936 51.8066C54.1072 51.7002 54.0237 51.5915 53.943 51.4806C53.8623 51.3696 53.7844 51.2565 53.7094 51.1415M51.6739 44.777C51.6343 44.4605 51.6053 44.143 51.5874 43.8249C51.5689 43.5063 51.5615 43.1877 51.5647 42.8686C51.5684 42.55 51.5821 42.2314 51.6074 41.9134C51.6322 41.5953 51.6675 41.2783 51.7139 40.9629C51.7894 40.5725 51.8848 40.1864 52.0009 39.8061C52.1164 39.4258 52.2525 39.0518 52.4081 38.6858C52.5632 38.3197 52.7383 37.9626 52.9314 37.615C53.1244 37.2674 53.3359 36.9304 53.5648 36.6054C53.2099 37.2199 52.9012 37.8599 52.6412 38.5202C52.3807 39.1803 52.1697 39.8589 52.0099 40.5504C51.85 41.2414 51.7414 41.944 51.6855 42.6513C51.6291 43.3586 51.6252 44.0691 51.6739 44.777M56.2623 49.4794C56.2196 49.3818 56.179 49.2837 56.14 49.1851C56.1009 49.0865 56.0635 48.9868 56.0276 48.8871C55.9917 48.7869 55.958 48.6861 55.9258 48.5848C55.8936 48.4836 55.863 48.3818 55.8346 48.2794C55.8773 48.3738 55.9211 48.4683 55.9669 48.5616C56.0123 48.655 56.0593 48.7478 56.1073 48.8396C56.1553 48.9319 56.2048 49.0232 56.256 49.1134C56.3066 49.2041 56.3589 49.2938 56.4121 49.3829C56.3267 49.3444 56.3019 49.4383 56.2623 49.4741M57.4027 54.8454L57.0963 54.6175C57.3832 54.7805 57.6744 54.9335 57.9708 55.0717C57.8537 55.0358 57.5926 54.9198 57.4027 54.8454ZM54.9975 45.2254C55.0307 45.5271 55.0766 45.8272 55.1357 46.1263C55.0597 45.958 54.9795 45.7935 54.8846 45.6284C54.8988 45.5962 54.9115 45.564 54.9231 45.5308C54.9347 45.4981 54.9452 45.4648 54.9542 45.4311C54.9632 45.3973 54.9706 45.363 54.9769 45.3288C54.9832 45.2945 54.9885 45.2602 54.9922 45.2254M55.1562 40.5646C55.1821 40.4671 55.2095 40.3705 55.239 40.2745C55.2686 40.1785 55.3002 40.0831 55.3335 39.9881C55.3667 39.8937 55.4015 39.7993 55.4384 39.7059C55.4753 39.6126 55.5144 39.5197 55.5545 39.4279C55.5165 39.5424 55.4801 39.6574 55.4453 39.7734C55.4105 39.8889 55.3772 40.005 55.3461 40.1216C55.3145 40.2381 55.2849 40.3552 55.257 40.4729C55.229 40.5905 55.2026 40.7081 55.1784 40.8263C55.152 40.7081 55.1283 40.6111 55.1562 40.5646" fill="#415870"/>
<path d="M58.812 21.4929C59.1206 21.6274 59.4238 21.7751 59.7203 21.9354C60.0167 22.0952 60.3063 22.2683 60.588 22.4529C60.8696 22.638 61.1434 22.8348 61.4087 23.0426C61.674 23.2509 61.9299 23.4698 62.1767 23.6998C62.413 23.9213 62.6409 24.1513 62.8603 24.3892C63.0798 24.6276 63.2902 24.874 63.4912 25.1277C63.6921 25.3814 63.8836 25.643 64.0656 25.911C64.247 26.1789 64.419 26.4537 64.5799 26.7344C64.4554 26.5202 64.3251 26.3097 64.1885 26.103C64.0519 25.8962 63.9089 25.6937 63.7607 25.4953C63.6125 25.297 63.4585 25.1029 63.2987 24.9135C63.1394 24.7242 62.9743 24.539 62.8039 24.3591C62.9252 24.4873 63.0428 24.6187 63.1573 24.7526C63.2717 24.8871 63.3825 25.0243 63.4896 25.1641C63.5972 25.3038 63.7006 25.4468 63.8008 25.5918C63.9005 25.7369 63.997 25.8851 64.0893 26.0349C64.1816 26.1868 64.2708 26.3409 64.3552 26.497C64.4401 26.6536 64.5213 26.8119 64.5978 26.9722C64.6748 27.1321 64.7476 27.2945 64.8167 27.4586C64.8853 27.6226 64.9502 27.7882 65.0103 27.9554C64.9681 27.8921 64.927 27.8278 64.8863 27.7634C64.8457 27.6991 64.8062 27.6337 64.7677 27.5683C64.7292 27.5023 64.6917 27.4364 64.6553 27.3694C64.6184 27.303 64.583 27.2354 64.5482 27.1674C64.3868 26.8915 64.2186 26.6336 64.0904 26.5756C63.8615 26.1958 63.6146 25.8266 63.3509 25.47C63.0865 25.1135 62.8056 24.7695 62.509 24.4393C61.9147 23.7794 61.2589 23.1775 60.5505 22.6417C60.1953 22.3728 59.8265 22.1225 59.4455 21.8916C59.0646 21.6601 58.6722 21.4491 58.2692 21.2581C57.8668 21.0672 57.4548 20.8968 57.0349 20.7481C56.6145 20.5993 56.1873 20.4722 55.7542 20.3672C55.9061 20.3578 56.0586 20.3588 56.2105 20.3704C56.3619 20.3825 56.5127 20.4052 56.6615 20.4385C56.8097 20.4712 56.9558 20.5149 57.0982 20.5687C57.2407 20.6222 57.3793 20.6857 57.5128 20.7586C57.9828 21.0044 58.3636 21.2956 58.812 21.4981M65.8379 31.8134C65.7978 31.4589 65.7466 31.124 65.6849 30.7801C65.7055 30.865 65.7245 30.9499 65.7414 31.0353C65.7582 31.1213 65.773 31.2068 65.7857 31.2933C65.7983 31.3793 65.8094 31.4658 65.8179 31.5528C65.8268 31.6393 65.8331 31.7263 65.8379 31.8134M42.1988 31.4383C42.1687 31.8023 42.1534 32.1678 42.1423 32.5212C42.1386 32.4305 42.1365 32.3403 42.137 32.2496C42.1386 31.9781 42.1593 31.707 42.1988 31.4383ZM54.195 21.1727L53.5826 21.2154C53.1907 21.198 52.7983 21.1996 52.4064 21.2196C52.0145 21.2402 51.6241 21.2792 51.2359 21.3373C50.8477 21.3948 50.4632 21.4712 50.0823 21.5662C49.7015 21.6611 49.3259 21.774 48.9562 21.9054C49.1645 21.8257 49.3745 21.7513 49.5865 21.6817C49.7986 21.6121 50.0122 21.5477 50.2269 21.4881C50.4421 21.429 50.6583 21.3747 50.8762 21.3251C51.0935 21.2761 51.3124 21.2323 51.5318 21.1933C51.7513 21.1542 51.9728 21.1247 52.1949 21.1041C52.4169 21.0836 52.6395 21.0725 52.8626 21.0709C53.0858 21.0693 53.3083 21.0772 53.5309 21.0946C53.753 21.1115 53.9745 21.1384 54.195 21.1743M55.779 21.7355C56.5199 21.8834 57.2385 22.1261 57.9174 22.4576C58.2566 22.6232 58.5846 22.8105 58.8995 23.0183C59.2144 23.2256 59.5162 23.4535 59.802 23.6998C59.5104 23.4614 59.2055 23.2404 58.8885 23.0373C58.5712 22.8345 58.2426 22.6501 57.9042 22.485C57.5661 22.3199 57.2185 22.1744 56.8635 22.0494C56.5085 21.9243 56.1461 21.8199 55.779 21.7371M47.1385 40.0984C47.1549 40.072 47.1881 40.0704 47.2266 40.0788C47.2345 40.0831 47.2419 40.0873 47.2503 40.091C47.2583 40.0947 47.2662 40.0978 47.2746 40.1005C47.2911 40.1067 47.3083 40.111 47.3258 40.1131C47.4144 40.2023 47.5046 40.2893 47.5964 40.3748C47.6876 40.4602 47.781 40.5441 47.8759 40.6264C47.9709 40.7081 48.0669 40.7883 48.1645 40.8669C48.2626 40.9455 48.3617 41.022 48.4625 41.0969C48.4018 41.078 48.3418 41.0568 48.2826 41.0336C48.2531 41.022 48.2241 41.0104 48.1945 40.9977C48.1655 40.985 48.1365 40.9724 48.108 40.9587C48.0674 40.9254 48.0273 40.8906 47.9883 40.8553C47.9492 40.8199 47.9113 40.7835 47.8738 40.7466C47.8361 40.7096 47.7994 40.6716 47.7636 40.6327C47.7276 40.594 47.6924 40.5547 47.6581 40.5145C47.6196 40.4744 47.5795 40.4354 47.5383 40.398C47.4972 40.3605 47.4545 40.3241 47.4107 40.2898C47.3669 40.255 47.3216 40.2223 47.2757 40.1907C47.2298 40.159 47.1823 40.1289 47.1343 40.101M42.2568 31.0343L42.2473 30.9942C42.2636 30.8697 42.2774 30.7458 42.2979 30.6244L42.3159 30.5817C42.2979 30.7331 42.2789 30.884 42.2568 31.0343V31.0343ZM63.2385 30.1044C63.2485 30.0933 63.2575 30.0817 63.2659 30.0695C63.282 30.0449 63.2944 30.0181 63.3029 29.9899C63.3066 29.9762 63.3097 29.9614 63.3118 29.9472C63.4907 30.1608 63.6784 30.3607 63.8768 30.568C63.8694 30.5648 63.8615 30.5617 63.8536 30.559C63.8456 30.5559 63.8377 30.5532 63.8298 30.5506C63.8219 30.5485 63.814 30.5459 63.8061 30.5437L63.7818 30.5374C63.6125 30.4462 63.44 30.2009 63.2385 30.1044M61.0268 24.337C61.0173 24.3017 61.0068 24.2663 60.9941 24.2315C60.982 24.1967 60.9683 24.1629 60.9535 24.1292C60.9382 24.0959 60.9219 24.0627 60.9039 24.0311C60.886 23.9989 60.8665 23.9672 60.8459 23.9372C60.9024 23.4804 60.9841 23.0336 61.0912 22.5204C61.0696 22.4349 61.0912 22.2651 61.0527 22.0952C61.0685 22.0731 61.0843 22.0509 61.0996 22.0283C61.1149 22.0056 61.1297 21.9829 61.1445 21.9597C61.1592 21.937 61.174 21.9138 61.1877 21.8901C61.202 21.8668 61.2157 21.8431 61.2294 21.8194C61.1703 22.1079 61.1244 22.3991 61.0928 22.6918C61.0606 22.9846 61.0427 23.2784 61.0379 23.5732C61.0337 23.8675 61.0427 24.1619 61.0659 24.4557C61.0885 24.749 61.1255 25.0412 61.1756 25.3318C61.1561 25.2495 61.1381 25.1672 61.1218 25.0844C61.106 25.0016 61.0917 24.9188 61.0791 24.8355C61.0669 24.7521 61.0564 24.6688 61.0474 24.5849C61.0384 24.501 61.0316 24.4172 61.0268 24.3328" fill="#189AB6"/>
<path d="M63.9152 32.2744C63.9384 32.5133 63.951 32.7528 63.9532 32.9933C63.9553 33.2333 63.9473 33.4733 63.9294 33.7128C63.911 33.9517 63.8825 34.1907 63.844 34.4275C63.8049 34.6643 63.7564 34.8996 63.6973 35.1322C63.4768 36.0853 63.154 36.9905 62.8892 37.8619C63.4615 36.9667 63.9194 35.7652 64.1773 34.7377C64.4353 33.7101 64.5582 32.862 64.8087 32.6853C65.0598 32.5086 65.1305 33.3019 64.9622 34.3515C64.939 34.4913 64.9137 34.6306 64.8852 34.7688C64.8567 34.9075 64.8256 35.0457 64.7918 35.1828C64.7581 35.3205 64.7211 35.4571 64.6821 35.5932C64.6431 35.7293 64.6009 35.8643 64.5566 35.9983C64.3799 36.5506 64.1731 37.0538 64.0048 37.4678C64.143 37.2706 64.143 37.2706 64.2807 37.0664C64.2454 37.1118 64.2121 37.1587 64.1815 37.2078C64.1504 37.2569 64.1225 37.307 64.0977 37.3592C64.0724 37.4109 64.0497 37.4642 64.0302 37.5185C64.0106 37.5728 63.9938 37.6282 63.9801 37.6841C64.0249 37.6208 64.0681 37.5565 64.1109 37.4921C64.1536 37.4272 64.1953 37.3618 64.2364 37.2959C64.277 37.23 64.3171 37.1635 64.3561 37.0965C64.3946 37.0295 64.4326 36.962 64.4695 36.894C64.4991 36.8344 64.5307 36.7758 64.5634 36.7183C64.5961 36.6608 64.6304 36.6038 64.6663 36.5479C64.7022 36.4926 64.7396 36.4377 64.7786 36.3839C64.8177 36.3301 64.8583 36.2779 64.9 36.2262C64.9 36.3765 64.9 36.5284 64.8915 36.6814C65.2681 36.1391 65.602 35.2577 65.8114 34.3363C66.0208 33.4148 66.1174 32.4606 66.2403 31.7722C66.206 32.2079 66.1559 32.6425 66.0894 33.0745C66.0229 33.5065 65.9401 33.9364 65.842 34.3621C65.7434 34.7883 65.6295 35.2103 65.4997 35.628C65.3699 36.0458 65.2244 36.4583 65.064 36.8649C64.8905 37.3012 64.6958 37.7284 64.4801 38.1456C64.2638 38.5623 64.0275 38.9685 63.7717 39.362C63.259 40.1492 62.6695 40.8837 62.0121 41.5547C61.327 42.2523 60.5642 42.8691 59.7387 43.3929C58.9129 43.9165 58.03 44.3439 57.1071 44.6668C56.6482 44.8271 56.1803 44.9595 55.7051 45.0634C54.7547 45.2722 53.7826 45.3655 52.8098 45.3414C52.324 45.3298 51.8393 45.2887 51.3582 45.2185C50.3291 45.0919 49.3169 44.8524 48.34 44.5043C47.3632 44.1564 46.4277 43.7022 45.5502 43.1498C43.7898 42.0412 42.2956 40.5579 41.1743 38.8055C41.0325 38.5486 40.9048 38.2841 40.7919 38.0133C40.7349 37.8777 40.6822 37.7411 40.6326 37.6029C40.5835 37.4647 40.5377 37.3254 40.4955 37.1846C40.4422 37.0121 40.3926 36.8386 40.3467 36.6635C40.3013 36.4883 40.2597 36.3127 40.2217 36.136C40.1843 35.9588 40.1505 35.7815 40.121 35.6027C40.0914 35.4244 40.0661 35.2456 40.0445 35.0663C39.9398 34.4886 39.869 33.9052 39.8324 33.3193C39.7955 32.7338 39.7934 32.1462 39.8256 31.5596C39.8578 30.9736 39.9242 30.3899 40.0244 29.8116C40.1252 29.2335 40.2592 28.6612 40.4269 28.0989C40.6284 27.5029 40.8748 26.9229 41.1638 26.3641C41.4524 25.8053 41.7825 25.269 42.1512 24.7595C42.5204 24.25 42.9271 23.7689 43.3681 23.32C43.809 22.8717 44.2827 22.4565 44.7859 22.0789C45.3049 21.6891 45.8493 21.3346 46.4158 21.0181C46.9822 20.7011 47.5694 20.4227 48.1733 20.1847C48.7768 19.9468 49.396 19.749 50.0263 19.594C50.6561 19.4389 51.296 19.326 51.9416 19.2569C52.4738 19.192 53.1136 19.2965 53.2803 19.4415C53.3658 19.5117 53.3357 19.5876 53.1258 19.6583C53.0261 19.6847 52.9258 19.7095 52.8251 19.7332C52.7243 19.7564 52.6231 19.7781 52.5218 19.7981C52.4205 19.8181 52.3187 19.8371 52.2164 19.854C52.1146 19.8709 52.0123 19.8857 51.9099 19.8994C50.8852 20.0936 49.8824 20.3897 48.9165 20.7834C48.4344 20.9802 47.9618 21.2006 47.5013 21.4449C47.0408 21.6886 46.593 21.9555 46.1594 22.2445C46.2159 22.1063 46.4654 21.9259 46.7523 21.7466C46.8204 21.7075 46.8884 21.6675 46.9554 21.6263C47.0224 21.5857 47.0888 21.5435 47.1553 21.5008C47.2212 21.458 47.2866 21.4143 47.3515 21.37C47.4159 21.3251 47.4802 21.2798 47.5435 21.2333C47.3737 21.304 47.2059 21.3789 47.0398 21.458C46.8736 21.5372 46.7096 21.6205 46.5482 21.7081C46.3863 21.7956 46.2264 21.8869 46.0692 21.9824C45.9121 22.0778 45.757 22.177 45.6051 22.2804C45.4542 22.3832 45.306 22.4898 45.1609 22.6C45.0154 22.7103 44.8729 22.8242 44.7337 22.9413C44.5939 23.0589 44.4573 23.1797 44.3238 23.3042C44.1904 23.4287 44.0606 23.5563 43.9335 23.6871C44.1123 23.5025 44.2959 23.3227 44.4853 23.1481C44.6741 22.974 44.8682 22.8052 45.0671 22.6417C45.2659 22.4787 45.4695 22.3215 45.6773 22.1701C45.8852 22.0187 46.0972 21.8732 46.3135 21.7339C45.749 22.0933 45.212 22.494 44.7068 22.9329C44.2009 23.371 43.7286 23.8463 43.2937 24.3549C43.0669 24.6208 42.8517 24.8961 42.6486 25.1804C42.445 25.4647 42.254 25.7569 42.0758 26.0576C41.8975 26.3577 41.7319 26.6658 41.5794 26.9801C41.427 27.2945 41.2882 27.6152 41.1632 27.9412C40.9728 28.4143 40.6954 28.8242 40.4664 29.3211C40.3984 29.4624 40.3399 29.6091 40.2913 29.7589C40.2428 29.9087 40.2048 30.0616 40.1774 30.2162C40.15 30.3713 40.1336 30.5279 40.1278 30.6856C40.122 30.8428 40.1268 31 40.1426 31.1567C40.3168 30.2507 40.5836 29.365 40.9385 28.5135C41.1163 28.0878 41.3151 27.6717 41.5356 27.2666C41.7556 26.8615 41.9961 26.468 42.2567 26.0877C42.7769 25.3285 43.3686 24.6209 44.0237 23.9746C44.3507 23.6518 44.6936 23.3448 45.0507 23.0552C45.4073 22.7651 45.7776 22.4924 46.1605 22.2376C46.1594 22.2392 46.1584 22.2408 46.1579 22.2424C46.1568 22.244 46.1558 22.2456 46.1552 22.2471C46.1542 22.2487 46.1536 22.2503 46.1531 22.2519C46.1521 22.2535 46.1514 22.2553 46.151 22.2572C46.4749 22.0367 46.8093 21.832 47.1521 21.6432C47.495 21.4544 47.8468 21.2819 48.206 21.1257C48.5652 20.9701 48.9318 20.8309 49.3037 20.709C49.6761 20.5872 50.0538 20.4828 50.4357 20.3962C49.9609 20.5339 49.4925 20.6969 49.0758 20.8098C49.617 20.6531 50.1666 20.5286 50.7221 20.4369C51.278 20.3451 51.8387 20.2865 52.4015 20.2612C52.9638 20.2364 53.5277 20.2443 54.0894 20.286C54.6512 20.3277 55.2098 20.4026 55.7626 20.5107C55.3664 20.4685 54.9687 20.4421 54.571 20.4316C54.1728 20.421 53.774 20.4263 53.3763 20.4479C52.9786 20.469 52.5819 20.5065 52.1874 20.5592C51.7923 20.6125 51.3999 20.6816 51.0106 20.766C50.615 20.852 50.2231 20.9559 49.8364 21.0772C49.4503 21.1991 49.0695 21.3378 48.6955 21.4939C48.3221 21.6506 47.9555 21.8236 47.5973 22.0129C47.2397 22.2023 46.89 22.408 46.5508 22.6296C46.2117 22.8511 45.883 23.0895 45.5666 23.3432C45.2504 23.597 44.9468 23.866 44.6567 24.1492C44.366 24.4325 44.0902 24.7294 43.8285 25.0396C43.5675 25.3497 43.3211 25.672 43.0911 26.0059C42.8664 26.3329 42.6586 26.6705 42.4693 27.0186C42.2794 27.3668 42.1074 27.7244 41.955 28.0899C41.6488 28.8218 41.419 29.5832 41.2693 30.3623C41.5836 29.5347 41.8732 28.5858 42.2841 27.6943C42.695 26.8034 43.2125 25.9911 43.8011 25.508C43.3633 26.063 42.9725 26.6535 42.6328 27.2734C41.6101 29.1428 41.0761 31.2402 41.0804 33.371L41.0097 32.7364C40.9839 32.9659 40.9675 33.1969 40.9602 33.4279C40.9533 33.6595 40.9565 33.8911 40.9686 34.1216C40.9807 34.3526 41.0029 34.5831 41.0345 34.8126C41.0662 35.0415 41.1068 35.2693 41.1574 35.4951C41.2081 35.7209 41.2635 35.9456 41.3246 36.1692C41.3858 36.3923 41.4523 36.6144 41.524 36.8344C41.5958 37.0543 41.6728 37.2727 41.7545 37.4895C41.8368 37.7057 41.9244 37.9204 42.0167 38.1325C42.0789 38.2828 42.1406 38.4321 42.2097 38.5792L42.0167 38.1325C41.8632 37.7558 41.7276 37.3713 41.6111 36.9815C41.494 36.5917 41.3964 36.1961 41.3178 35.7968C41.2392 35.3975 41.1801 34.9945 41.1406 34.5894C41.101 34.1843 41.081 33.7777 41.0804 33.371C41.1632 34.0989 41.2429 34.8648 41.4127 35.7752C41.4127 35.2646 41.3341 34.553 41.3368 33.8441C41.3231 33.612 41.3162 33.3799 41.3162 33.1473C41.3162 32.9152 41.3236 32.6832 41.3378 32.4511C41.3521 32.219 41.3732 31.9879 41.4011 31.7574C41.4291 31.5269 41.4644 31.297 41.5066 31.0686C41.4533 31.4061 41.4185 31.7469 41.4017 32.0882C41.3848 32.4294 41.3864 32.7718 41.4064 33.113C41.4264 33.4543 41.4644 33.7945 41.5209 34.1316C41.5773 34.4692 41.6517 34.8031 41.7435 35.1322C41.5145 33.2507 41.6527 31.2701 42.2952 29.493C42.2213 29.7393 42.1554 29.9878 42.0979 30.2378C42.0409 30.4883 41.9919 30.7405 41.9513 30.9942C41.9107 31.2479 41.879 31.5032 41.8558 31.759C41.8321 32.0149 41.8173 32.2712 41.811 32.5281C41.7783 32.9638 41.7704 33.401 41.7878 33.8378C41.8052 34.2745 41.8474 34.7097 41.9149 35.1412C41.9824 35.5732 42.0747 36.0009 42.1908 36.4219C42.3073 36.8428 42.4482 37.2574 42.6122 37.662L42.5326 37.4773C42.5832 37.6013 42.6412 37.7242 42.6977 37.8482C42.7673 38.0085 42.8401 38.1678 42.9166 38.3245C42.993 38.4816 43.0732 38.6367 43.1566 38.7902C43.324 39.097 43.5054 39.3958 43.7004 39.6859C43.7916 39.8114 43.8871 39.9338 43.9863 40.0525C44.086 40.1717 44.1899 40.2872 44.2969 40.399C44.4045 40.5108 44.5164 40.6184 44.6314 40.7229C44.7463 40.8268 44.865 40.9265 44.9869 41.0225L45.2037 41.2387C45.0338 41.1354 44.9278 41.1011 45.1773 41.3906C45.3181 41.5484 45.4648 41.7003 45.6177 41.8459C45.7707 41.992 45.9295 42.1312 46.094 42.2641C46.2586 42.3965 46.4285 42.5226 46.603 42.6413C46.7776 42.76 46.957 42.8718 47.1411 42.9757C47.8938 43.4251 48.7077 43.8033 49.5585 44.2058C49.7014 44.2659 49.847 44.3202 49.9942 44.3687C50.1413 44.4173 50.2906 44.46 50.4415 44.4975C50.5918 44.5344 50.7437 44.566 50.8967 44.5913C51.0496 44.6167 51.2036 44.6367 51.3582 44.6504C51.3877 44.6641 51.4189 44.6757 51.451 44.6842C51.4827 44.6926 51.5154 44.6984 51.5481 44.7016C51.5808 44.7047 51.614 44.7047 51.6467 44.7016C51.68 44.6989 51.7121 44.6931 51.7443 44.6847C51.8973 44.6968 52.0529 44.7053 52.2074 44.7121C52.3013 44.7216 52.3947 44.7285 52.4886 44.7338C52.5825 44.7385 52.6769 44.7417 52.7708 44.7422C52.8647 44.7433 52.9585 44.7417 53.0524 44.7385C53.1469 44.7348 53.2407 44.7295 53.3341 44.7222C52.9675 44.7222 52.5867 44.7222 52.2074 44.7121L51.7854 44.6752C51.8187 44.6631 51.8519 44.6531 51.8862 44.6446C51.9205 44.6367 51.9548 44.6304 51.9896 44.6262C52.0244 44.6219 52.0592 44.6193 52.0945 44.6193C52.1294 44.6188 52.1642 44.6204 52.1995 44.624C51.8741 44.5871 51.5502 44.5365 51.229 44.4716C50.9083 44.4073 50.5897 44.3292 50.2753 44.2379C49.9609 44.1467 49.6502 44.0422 49.3448 43.9241C49.0394 43.8065 48.7388 43.6762 48.4444 43.5327C48.1443 43.3871 47.851 43.2294 47.5641 43.0601C47.2772 42.8908 46.9971 42.7099 46.7249 42.5179C46.4522 42.3259 46.1879 42.1228 45.9321 41.9097C45.6763 41.6961 45.4289 41.4724 45.191 41.2387C45.3292 41.3231 45.5265 41.4497 45.6146 41.4914C45.3951 41.3453 45.1841 41.1865 44.9747 41.0225C44.8234 40.8669 44.6762 40.7076 44.5327 40.5446C44.3898 40.3816 44.2505 40.2149 44.116 40.0451C43.8462 39.7052 43.5937 39.3519 43.3596 38.9864C43.3955 39.0344 43.4324 39.0819 43.4709 39.1283C43.5094 39.1742 43.549 39.2196 43.5896 39.2639C43.6307 39.3077 43.6729 39.3504 43.7162 39.3921C43.7595 39.4337 43.8038 39.4743 43.8491 39.5134C43.6787 39.2581 43.5184 38.9959 43.3675 38.7285C43.2167 38.4611 43.0758 38.1878 42.9456 37.9099C42.8153 37.6319 42.6955 37.3486 42.5869 37.0617C42.4777 36.7746 42.3795 36.4834 42.2926 36.1887C42.2055 35.8923 42.1301 35.5927 42.0663 35.2904C42.0024 34.9882 41.9508 34.6833 41.9101 34.3769C41.87 34.0709 41.8416 33.7629 41.8252 33.4543C41.8083 33.1457 41.8041 32.8366 41.811 32.5281C41.8548 31.9563 41.9407 31.3887 42.0689 30.8302C42.1966 30.2716 42.3653 29.723 42.5742 29.1892C42.7836 28.6554 43.0315 28.1379 43.3174 27.6411C43.6028 27.1442 43.9251 26.6689 44.2811 26.2201C44.0606 26.4532 43.8528 26.6974 43.6582 26.9527C43.4635 27.208 43.2821 27.4728 43.1154 27.7471C42.9493 28.0214 42.7968 28.3041 42.6602 28.5942C42.5236 28.8848 42.4023 29.1818 42.2968 29.4851C42.4239 29.061 42.5763 28.6448 42.7525 28.2387C42.9292 27.8325 43.1296 27.4375 43.3528 27.055C43.5759 26.6726 43.8217 26.3039 44.0886 25.9505C44.3555 25.5976 44.643 25.2606 44.95 24.9415C45.2554 24.6229 45.5808 24.3238 45.9231 24.0453C46.266 23.7673 46.6257 23.511 47.0002 23.2773C47.3747 23.0442 47.7635 22.8342 48.1644 22.6491C48.5647 22.4639 48.9767 22.3041 49.3971 22.1701C48.8622 22.551 48.1559 23.042 47.9449 23.4392C48.0193 23.5136 48.9835 23.0779 48.4634 23.4144C47.5435 24.0627 46.8019 24.6419 46.257 25.2073C45.7127 25.7728 45.3798 26.3108 45.373 26.8409C45.3925 26.9564 45.882 26.6473 46.3383 26.4558C46.795 26.2638 47.1822 26.1604 46.9754 26.4421C46.8277 26.612 46.6848 26.786 46.5471 26.9643C46.4095 27.1426 46.2771 27.3251 46.1505 27.5113C46.0239 27.6975 45.9026 27.8874 45.787 28.081C45.6721 28.274 45.5623 28.4713 45.4584 28.6712C45.4152 28.7408 45.3735 28.811 45.3324 28.8817C45.2918 28.9529 45.2522 29.0246 45.2142 29.0974C45.138 29.2422 45.0673 29.3898 45.0022 29.54C44.9964 29.5568 44.9911 29.5742 44.9874 29.5922C44.9837 29.6096 44.9811 29.6275 44.98 29.6455C44.9784 29.6634 44.9784 29.6813 44.98 29.6993C44.9811 29.7172 44.9832 29.7351 44.9869 29.7525C44.9057 29.9817 44.8319 30.2134 44.7653 30.4472C44.6983 30.6809 44.6393 30.9172 44.5876 31.1545C44.4833 31.6297 44.4095 32.111 44.3666 32.5956C44.3391 32.8261 44.3249 33.055 44.318 33.285C44.3112 33.3124 44.3038 33.3399 44.2948 33.3668C44.2859 33.3931 44.2764 33.4195 44.2653 33.4459C44.2547 33.4717 44.2431 33.4976 44.2305 33.5229C44.2178 33.5482 44.2046 33.573 44.1899 33.5973C44.2437 33.7418 44.289 33.8853 44.3281 34.0272C44.3365 34.1806 44.3486 34.3331 44.3655 34.4855C44.3824 34.638 44.4035 34.7899 44.4283 34.9413C44.4536 35.0926 44.4826 35.243 44.5164 35.3928C44.5496 35.5421 44.5871 35.6908 44.6287 35.8385C44.6403 35.9245 44.653 36.0099 44.6678 36.0954C44.6825 36.1808 44.6983 36.2657 44.7158 36.3507C44.7332 36.4351 44.7522 36.52 44.7727 36.6038C44.7933 36.6882 44.8149 36.7716 44.8381 36.8549C44.8724 36.8317 44.9004 36.7584 44.9621 36.8011C45.0365 36.9784 45.1161 37.1529 45.2016 37.3244C45.2875 37.4963 45.3783 37.6651 45.4753 37.8313C45.5718 37.9969 45.6736 38.1594 45.7807 38.3187C45.8883 38.4774 46.0007 38.633 46.1178 38.7849C46.1547 38.8498 46.1906 38.9152 46.2254 38.9812C46.2602 39.0471 46.2934 39.1136 46.3256 39.1811C46.3583 39.2481 46.3894 39.3161 46.419 39.3841C46.449 39.4522 46.478 39.5213 46.5055 39.5904C46.9301 39.7724 47.4502 40.2207 48.0678 40.6527C48.2176 40.764 48.3717 40.8695 48.5294 40.9703C48.6866 41.0705 48.848 41.1649 49.012 41.254C49.1761 41.3432 49.3433 41.426 49.5136 41.503C49.6835 41.58 49.8565 41.6512 50.0316 41.7161V41.705C50.1893 41.7667 50.3491 41.8248 50.5106 41.878C50.6714 41.9313 50.8339 41.9804 50.9979 42.0247C51.3252 42.1145 51.6571 42.1865 51.9922 42.2404C52.0186 42.2525 52.045 42.2652 52.0708 42.2779C52.0967 42.291 52.1225 42.3042 52.1478 42.3179C52.1737 42.3317 52.199 42.3459 52.2238 42.3601C52.2491 42.3744 52.2739 42.3892 52.2987 42.4044C52.4764 42.3633 52.6542 42.3744 52.7428 42.348C53.294 42.4308 53.7587 42.4957 54.2414 42.53C54.273 42.5073 54.3052 42.4862 54.3379 42.4662C54.4041 42.4267 54.4737 42.3929 54.5457 42.3654C54.5816 42.3517 54.6185 42.339 54.6554 42.3285C54.8309 42.3093 55.0055 42.2828 55.1787 42.2488C55.2652 42.232 55.3517 42.2135 55.4377 42.1929C55.5231 42.1724 55.6086 42.1502 55.6935 42.1259C55.7932 42.1033 55.8918 42.0795 55.9904 42.0547C56.0891 42.0294 56.1877 42.0025 56.2853 41.9746C56.3834 41.9466 56.4805 41.9171 56.5775 41.8859C56.6746 41.8553 56.7711 41.8232 56.8671 41.7894C57.1952 41.6744 57.5175 41.5426 57.8318 41.3949C58.4616 41.0986 59.0595 40.7389 59.6163 40.3215C59.8943 40.1126 60.1617 39.89 60.417 39.6542C60.4318 39.6553 60.4465 39.6569 60.4608 39.66C60.4755 39.6632 60.4898 39.6674 60.504 39.6727C60.5177 39.6779 60.5314 39.6838 60.5446 39.6906C60.5578 39.698 60.5705 39.7059 60.5821 39.7149C60.676 39.5034 60.9218 39.3103 61.0099 39.1283C61.0014 39.17 61.0099 39.2027 61.0331 39.2169C61.0616 39.1652 61.0911 39.1146 61.1227 39.065C61.1544 39.016 61.1871 38.9674 61.2219 38.92C61.2562 38.8725 61.2926 38.8261 61.33 38.7812C61.3675 38.7359 61.4065 38.6921 61.4471 38.6499C61.4867 38.6114 61.5257 38.5729 61.5642 38.5328C61.6027 38.4933 61.6402 38.4526 61.6766 38.4115C61.713 38.3698 61.7489 38.3282 61.7837 38.2849C61.8185 38.2422 61.8522 38.1989 61.8855 38.1546C61.8987 38.1245 61.9108 38.094 61.9224 38.0634C61.9345 38.0328 61.9456 38.0022 61.9561 37.9711C61.9662 37.9399 61.9762 37.9088 61.9852 37.8772C61.9947 37.8455 62.0031 37.8139 62.011 37.7822C62.0479 37.7284 62.0827 37.673 62.117 37.6192C62.655 37.1461 62.8412 36.473 63.048 35.7583C63.115 35.5806 63.1772 35.4007 63.2347 35.2198C63.2917 35.0383 63.3439 34.8553 63.3903 34.6707C63.4373 34.4866 63.479 34.3009 63.5148 34.1142C63.5512 33.9275 63.5823 33.7397 63.6077 33.5514C63.6783 32.9501 63.8355 32.7116 63.9168 32.2712" fill="#189AB6"/>
<path d="M48.6153 41.2029C48.7509 41.2994 48.8886 41.3922 49.0289 41.4814C49.1692 41.5705 49.3116 41.656 49.4561 41.7382C49.6006 41.82 49.7473 41.8981 49.896 41.9724C50.0448 42.0468 50.1951 42.117 50.347 42.184C49.6745 41.955 49.0373 41.752 48.6153 41.2071M47.4238 26.239C47.4913 26.2174 47.5588 26.1942 47.6253 26.1694C47.6922 26.1451 47.7587 26.1193 47.8241 26.0919C47.89 26.065 47.9555 26.037 48.0203 26.0075C48.0847 25.9779 48.149 25.9468 48.2123 25.9152C47.8927 26.142 47.5883 26.3899 47.3014 26.6573C47.0144 26.9247 46.746 27.2112 46.4975 27.515C46.2491 27.8183 46.0212 28.1385 45.816 28.4723C45.6103 28.8068 45.4273 29.1538 45.2685 29.5125H45.2559C45.326 29.349 45.4014 29.1876 45.4827 29.0294C45.5639 28.8706 45.6504 28.715 45.7427 28.5631C45.835 28.4106 45.9326 28.2619 46.0355 28.1163C46.1383 27.9712 46.2464 27.8294 46.3593 27.6917C46.7961 27.1204 47.2428 26.6447 47.429 26.2422M47.2212 40.0788L47.245 40.0851C47.2529 40.0873 47.2613 40.0894 47.2692 40.092C47.2771 40.0946 47.285 40.0968 47.293 40.0994C47.3003 40.102 47.3082 40.1052 47.3162 40.1078C47.3077 40.1062 47.2988 40.1047 47.2903 40.1026C47.2819 40.1004 47.2734 40.0978 47.265 40.0952C47.2484 40.0893 47.2324 40.0821 47.217 40.0735M49.2082 22.5879L49.3886 22.5219C49.1653 22.6202 48.9449 22.7248 48.7277 22.8358C48.619 22.8912 48.5114 22.9481 48.4043 23.0067C48.2973 23.0652 48.1912 23.1248 48.0857 23.1866C48.1738 23.127 48.263 23.07 48.3542 23.0151C48.4449 22.9603 48.5378 22.9081 48.6311 22.8579C48.725 22.8078 48.82 22.7604 48.916 22.7155C49.0125 22.6702 49.1096 22.628 49.2082 22.5879M54.3547 21.9797C54.6011 21.9966 54.8474 22.0214 55.0921 22.0546C55.3369 22.0878 55.5806 22.1295 55.8227 22.1796C56.0648 22.2292 56.3053 22.2872 56.5432 22.3532C56.7816 22.4196 57.0174 22.4935 57.2506 22.5757C57.5367 22.6906 57.8165 22.8207 58.0887 22.9655C58.3609 23.1101 58.6251 23.2688 58.881 23.4419C59.1363 23.6143 59.3826 23.8 59.6184 23.9989C59.8541 24.1977 60.0794 24.4082 60.2925 24.6308C59.8774 24.2695 59.4359 23.9398 58.9717 23.6439C58.508 23.348 58.0222 23.0863 57.5201 22.8622C57.0174 22.638 56.4989 22.4513 55.9688 22.3036C55.4382 22.1559 54.898 22.0477 54.3521 21.9797M50.0965 24.7769C50.1766 24.7595 50.2573 24.7431 50.3386 24.7278C50.4193 24.7131 50.5005 24.6993 50.5817 24.6872C50.7448 24.6632 50.9086 24.6444 51.0728 24.6308C50.9937 24.6492 50.9156 24.6688 50.8376 24.6893C50.759 24.7104 50.6814 24.732 50.6039 24.7553C50.5264 24.7779 50.4493 24.8022 50.3723 24.8275C50.2958 24.8528 50.2194 24.8792 50.1434 24.9066C50.1861 24.8476 50.117 24.8143 50.0965 24.7785M45.8419 24.8518L46.0597 24.6513C45.8946 24.8476 45.7343 25.0448 45.5839 25.25C45.6298 25.1662 45.7564 24.9852 45.8419 24.8518ZM56.2953 40.7957C56.0606 40.7761 55.8248 40.7682 55.5906 40.7724C55.7283 40.7392 55.8665 40.7018 56.0041 40.6538C56.0263 40.6691 56.049 40.6833 56.0722 40.6965C56.0954 40.7102 56.1191 40.7229 56.1434 40.7339C56.1677 40.7455 56.1924 40.7561 56.2172 40.7656C56.2426 40.7756 56.2679 40.784 56.2937 40.7914M59.8199 41.6069C59.89 41.6407 59.9596 41.676 60.0287 41.7129C60.0973 41.7498 60.1654 41.7878 60.2329 41.8274C60.2999 41.8669 60.3663 41.9076 60.4323 41.9498C60.4977 41.992 60.5625 42.0352 60.6269 42.08C60.5451 42.0336 60.4628 41.9888 60.38 41.945C60.2972 41.9012 60.2134 41.859 60.1295 41.8179C60.0451 41.7767 59.9602 41.7367 59.8752 41.6982C59.7898 41.6596 59.7038 41.6222 59.6173 41.5863C59.7112 41.5863 59.7898 41.5863 59.8199 41.6069" fill="#189AB6"/>
</svg>
