<svg width="265" height="80" viewBox="0 0 265 80" fill="none" xmlns="http://www.w3.org/2000/svg">
<rect x="2.5" y="2.5" width="260" height="75" stroke="#34A854" stroke-width="5"/>
<path d="M140.62 54.504C139.396 54.504 138.292 54.444 137.308 54.324C136.324 54.204 135.412 54.024 134.572 53.784C133.732 53.544 132.916 53.232 132.124 52.848V47.304C133.228 48.192 134.476 48.864 135.868 49.32C137.26 49.776 138.58 50.004 139.828 50.004C140.932 50.004 141.772 49.8 142.348 49.392C142.948 48.96 143.248 48.312 143.248 47.448C143.248 46.8 142.972 46.284 142.42 45.9C141.892 45.492 141.184 45.144 140.296 44.856C139.408 44.544 138.412 44.196 137.308 43.812C136.612 43.596 135.928 43.32 135.256 42.984C134.584 42.648 133.984 42.228 133.456 41.724C132.928 41.196 132.508 40.56 132.196 39.816C131.884 39.072 131.728 38.16 131.728 37.08C131.728 36.096 131.908 35.148 132.268 34.236C132.628 33.324 133.18 32.508 133.924 31.788C134.692 31.068 135.664 30.504 136.84 30.096C138.016 29.664 139.396 29.448 140.98 29.448C141.964 29.448 142.828 29.508 143.572 29.628C144.34 29.748 145.072 29.928 145.768 30.168C146.464 30.384 147.172 30.672 147.892 31.032V36.648C147.34 36.192 146.716 35.772 146.02 35.388C145.348 34.98 144.64 34.644 143.896 34.38C143.152 34.116 142.372 33.972 141.556 33.948C140.836 33.924 140.176 33.996 139.576 34.164C138.976 34.332 138.508 34.608 138.172 34.992C137.836 35.352 137.668 35.82 137.668 36.396C137.668 37.068 137.872 37.596 138.28 37.98C138.688 38.364 139.252 38.688 139.972 38.952C140.692 39.192 141.496 39.456 142.384 39.744C143.368 40.032 144.268 40.356 145.084 40.716C145.924 41.052 146.656 41.484 147.28 42.012C147.904 42.54 148.384 43.188 148.72 43.956C149.056 44.724 149.224 45.648 149.224 46.728C149.224 48.168 148.888 49.488 148.216 50.688C147.544 51.864 146.572 52.8 145.3 53.496C144.028 54.168 142.468 54.504 140.62 54.504ZM153.333 54V29.988H169.785V34.488H159.165V39.708H168.381V44.244H159.165V49.5H169.785V54H153.333ZM185.365 54.504C182.989 54.504 180.925 54.06 179.173 53.172C177.421 52.26 176.053 50.88 175.069 49.032C174.109 47.184 173.629 44.844 173.629 42.012C173.629 37.908 174.661 34.8 176.725 32.688C178.789 30.576 181.669 29.52 185.365 29.52C187.741 29.52 189.805 29.976 191.557 30.888C193.333 31.776 194.701 33.132 195.661 34.956C196.621 36.78 197.101 39.12 197.101 41.976C197.101 46.104 196.069 49.224 194.005 51.336C191.965 53.448 189.085 54.504 185.365 54.504ZM185.365 49.716C186.589 49.716 187.621 49.464 188.461 48.96C189.325 48.456 189.973 47.64 190.405 46.512C190.861 45.36 191.089 43.848 191.089 41.976C191.089 40.08 190.861 38.568 190.405 37.44C189.973 36.312 189.325 35.508 188.461 35.028C187.621 34.524 186.589 34.272 185.365 34.272C184.141 34.272 183.109 34.524 182.269 35.028C181.429 35.532 180.781 36.348 180.325 37.476C179.893 38.604 179.677 40.128 179.677 42.048C179.677 43.944 179.893 45.456 180.325 46.584C180.781 47.688 181.429 48.492 182.269 48.996C183.109 49.476 184.141 49.716 185.365 49.716Z" fill="#34A854"/>
<path d="M108.167 17H69.8334C67.7163 17 66 18.7163 66 20.8334V59.1666C66 61.2837 67.7163 63 69.8334 63H108.167C110.284 63 112 61.2837 112 59.1666V20.8334C112 18.7163 110.284 17 108.167 17Z" fill="#FABC05"/>
<path fill-rule="evenodd" clip-rule="evenodd" d="M71.2709 43.3541L66 35.7886V20.833C66 18.716 67.7193 17 69.833 17H108.167C110.284 17 112 18.7193 112 20.833L86.6041 20.8334C86.6041 20.8334 71.2709 44.4149 71.2709 43.3541Z" fill="#EB4335"/>
<path fill-rule="evenodd" clip-rule="evenodd" d="M93.2496 47.5943L83.9576 63H69.8303C67.7148 63 66 61.2876 66 59.1662V35.7886L70.8998 42.5137C73.4565 46.8559 78.1793 49.7697 83.5828 49.7697C87.2258 49.7697 90.5746 48.4346 93.1541 46.2397L93.6346 46.7203C93.5521 47.011 93.4246 47.3043 93.2497 47.5943H93.2496Z" fill="#34A854"/>
<path d="M83.4895 24.6666C77.4999 24.6666 72.7083 29.3518 72.7083 35.2084C72.7083 41.0648 77.4999 45.75 83.4895 45.75C89.479 45.75 94.2708 41.0648 94.2708 35.2084C94.2708 29.3518 89.479 24.6666 83.4895 24.6666V24.6666Z" fill="#4285F5"/>
<path d="M95.4319 44.0361L98.0183 46.6225L99.2046 45.3504L109.604 55.7499L104.271 61.0834L93.8712 50.6839L95.0889 49.5482L92.4969 46.9562C90.0239 48.7977 86.9556 49.8952 83.6455 49.8952C75.4879 49.8952 68.875 43.2822 68.875 35.1246C68.875 26.9672 75.4879 20.3541 83.6455 20.3541C91.803 20.3541 98.416 26.9672 98.416 35.1246C98.416 38.4616 97.3007 41.5529 95.432 44.0362L95.4319 44.0361ZM83.6456 24.8991C77.9647 24.8991 73.4198 29.4438 73.4198 35.1247C73.4198 40.8057 77.9647 45.3505 83.6456 45.3505C89.3265 45.3505 93.8713 40.8056 93.8713 35.1246C93.8713 29.4437 89.3266 24.899 83.6456 24.899V24.8991Z" fill="white"/>
</svg>
