<svg width="265" height="80" viewBox="0 0 265 80" fill="none" xmlns="http://www.w3.org/2000/svg">
<rect x="2.5" y="2.5" width="260" height="75" stroke="#4285F4" stroke-width="5"/>
<path d="M67.697 50V35.366H62.648V31.991H77.201V35.366H72.071V50H67.697ZM76.5893 50L83.3933 31.991H88.1723L94.5443 50H90.0623L84.3113 33.017L86.4443 32.828L80.7203 50H76.5893ZM80.4233 46.112L81.3143 42.899H89.4953L89.9003 46.112H80.4233ZM104.236 50.378C102.472 50.378 100.924 50.063 99.5918 49.433C98.2778 48.803 97.2518 47.804 96.5138 46.436C95.7938 45.05 95.4338 43.241 95.4338 41.009C95.4338 38.813 95.7938 37.022 96.5138 35.636C97.2518 34.25 98.2778 33.233 99.5918 32.585C100.924 31.919 102.472 31.586 104.236 31.586C105.37 31.586 106.477 31.703 107.557 31.937C108.637 32.171 109.672 32.495 110.662 32.909V36.878C109.582 36.32 108.574 35.87 107.638 35.528C106.72 35.186 105.766 35.015 104.776 35.015C103.75 35.015 102.868 35.195 102.13 35.555C101.41 35.915 100.861 36.536 100.483 37.418C100.105 38.282 99.9158 39.47 99.9158 40.982C99.9158 42.476 100.105 43.664 100.483 44.546C100.879 45.41 101.428 46.031 102.13 46.409C102.832 46.787 103.651 46.976 104.587 46.976C105.073 46.976 105.523 46.949 105.937 46.895C106.369 46.823 106.747 46.706 107.071 46.544V43.358H104.101V39.956H111.445V48.434C110.329 49.046 109.159 49.523 107.935 49.865C106.729 50.207 105.496 50.378 104.236 50.378ZM122.742 50V31.991H127.197L133.38 40.604L131.004 40.685L137.403 31.991H141.75V50H137.376V35.285L138.24 36.689L132.084 44.87L125.982 36.554L126.927 35.906V50H122.742ZM144.01 50L150.814 31.991H155.593L161.965 50H157.483L151.732 33.017L153.865 32.828L148.141 50H144.01ZM147.844 46.112L148.735 42.899H156.916L157.321 46.112H147.844ZM164.244 50V31.991H167.97L177.231 44.465L175.935 47.165V31.991H179.958V50H176.664L167.241 37.688L168.267 35.717V50H164.244ZM182.216 50L189.02 31.991H193.799L200.171 50H195.689L189.938 33.017L192.071 32.828L186.347 50H182.216ZM186.05 46.112L186.941 42.899H195.122L195.527 46.112H186.05ZM209.863 50.378C208.099 50.378 206.551 50.063 205.219 49.433C203.905 48.803 202.879 47.804 202.141 46.436C201.421 45.05 201.061 43.241 201.061 41.009C201.061 38.813 201.421 37.022 202.141 35.636C202.879 34.25 203.905 33.233 205.219 32.585C206.551 31.919 208.099 31.586 209.863 31.586C210.997 31.586 212.104 31.703 213.184 31.937C214.264 32.171 215.299 32.495 216.289 32.909V36.878C215.209 36.32 214.201 35.87 213.265 35.528C212.347 35.186 211.393 35.015 210.403 35.015C209.377 35.015 208.495 35.195 207.757 35.555C207.037 35.915 206.488 36.536 206.11 37.418C205.732 38.282 205.543 39.47 205.543 40.982C205.543 42.476 205.732 43.664 206.11 44.546C206.506 45.41 207.055 46.031 207.757 46.409C208.459 46.787 209.278 46.976 210.214 46.976C210.7 46.976 211.15 46.949 211.564 46.895C211.996 46.823 212.374 46.706 212.698 46.544V43.358H209.728V39.956H217.072V48.434C215.956 49.046 214.786 49.523 213.562 49.865C212.356 50.207 211.123 50.378 209.863 50.378ZM220.907 50V31.991H233.246V35.366H225.281V39.281H232.193V42.683H225.281V46.625H233.246V50H220.907ZM236.912 50V31.991H245.687C247.721 31.991 249.314 32.468 250.466 33.422C251.618 34.358 252.194 35.789 252.194 37.715C252.194 38.507 252.032 39.29 251.708 40.064C251.384 40.82 250.907 41.477 250.277 42.035C249.647 42.575 248.855 42.926 247.901 43.088L247.631 41.603L253.112 50H247.55L243.041 42.143L244.985 43.79H241.286V50H236.912ZM241.286 40.577H244.958C245.732 40.577 246.344 40.37 246.794 39.956C247.244 39.542 247.469 38.858 247.469 37.904C247.469 37.076 247.262 36.446 246.848 36.014C246.452 35.582 245.885 35.366 245.147 35.366H241.286V40.577Z" fill="#4285F4"/>
<g clip-path="url(#clip0_131_141)">
<path d="M37.0025 61.2531L29.0161 53.2573L46.1716 35.9267L54.3051 44.0584L37.0025 61.2531Z" fill="#8AB4F8"/>
<path d="M37.0603 26.8173L28.9286 18.6837L11.6856 35.9268C9.43938 38.1711 9.43751 41.8086 11.6818 44.0548C11.6837 44.0567 11.6856 44.0585 11.6856 44.0585L28.9286 61.3016L36.9057 53.2873L23.8757 40.0038L37.0603 26.8173Z" fill="#4285F4"/>
<path d="M54.3032 35.9266L37.0603 18.6837C34.8141 16.4375 31.173 16.4375 28.9268 18.6837C26.6806 20.9299 26.6806 24.571 28.9268 26.8153L46.1791 44.0582C48.4252 46.3044 52.0664 46.3044 54.3107 44.0582C56.5568 41.8121 56.5568 38.1709 54.3107 35.9266H54.3032Z" fill="#8AB4F8"/>
<path d="M32.9309 63.002C36.0785 63.002 38.6302 60.4503 38.6302 57.3027C38.6302 54.1551 36.0785 51.6035 32.9309 51.6035C29.7833 51.6035 27.2317 54.1551 27.2317 57.3027C27.2317 60.4503 29.7833 63.002 32.9309 63.002Z" fill="#246FDB"/>
</g>
<defs>
<clipPath id="clip0_131_141">
<rect width="45.9981" height="46" fill="white" transform="translate(10 17)"/>
</clipPath>
</defs>
</svg>
