<svg width="265" height="80" viewBox="0 0 265 80" fill="none" xmlns="http://www.w3.org/2000/svg">
<rect x="2.5" y="2.5" width="260" height="75" stroke="#4353FF" stroke-width="5"/>
<path d="M94.36 52L88.75 31.99H94.06L97.57 47.53H96.76L101.26 31.99H105.01L109.6 47.74H108.7L112.24 31.99H117.55L111.94 52H107.14L102.73 37.6H103.6L99.16 52H94.36ZM120.423 52V31.99H134.133V35.74H125.283V40.09H132.963V43.87H125.283V48.25H134.133V52H120.423ZM138.206 52V31.99H146.696C148.156 31.99 149.416 32.18 150.476 32.56C151.556 32.92 152.396 33.51 152.996 34.33C153.596 35.13 153.896 36.2 153.896 37.54C153.896 38.44 153.676 39.18 153.236 39.76C152.796 40.34 152.266 40.81 151.646 41.17C151.026 41.51 150.446 41.78 149.906 41.98L149.366 40.93C150.466 40.97 151.426 41.2 152.246 41.62C153.086 42.02 153.736 42.59 154.196 43.33C154.676 44.05 154.916 44.92 154.916 45.94C154.916 47.34 154.576 48.49 153.896 49.39C153.236 50.27 152.346 50.93 151.226 51.37C150.106 51.79 148.866 52 147.506 52H138.206ZM143.066 48.25H147.146C147.646 48.25 148.106 48.18 148.526 48.04C148.946 47.88 149.286 47.62 149.546 47.26C149.806 46.88 149.936 46.38 149.936 45.76C149.936 45.3 149.856 44.92 149.696 44.62C149.536 44.32 149.316 44.09 149.036 43.93C148.776 43.75 148.476 43.62 148.136 43.54C147.796 43.46 147.436 43.42 147.056 43.42H143.066V48.25ZM143.066 39.85H146.966C147.306 39.85 147.626 39.79 147.926 39.67C148.226 39.53 148.466 39.32 148.646 39.04C148.846 38.76 148.946 38.39 148.946 37.93C148.946 37.11 148.726 36.55 148.286 36.25C147.846 35.93 147.306 35.77 146.666 35.77H143.066V39.85ZM158.333 52V31.99H171.953V35.74H163.193V40.51H170.753V44.32H163.193V52H158.333ZM175.443 52V31.99H180.303V48.19H189.003V52H175.443ZM200.993 52.42C199.013 52.42 197.293 52.05 195.833 51.31C194.373 50.55 193.233 49.4 192.413 47.86C191.613 46.32 191.213 44.37 191.213 42.01C191.213 38.59 192.073 36 193.793 34.24C195.513 32.48 197.913 31.6 200.993 31.6C202.973 31.6 204.693 31.98 206.153 32.74C207.633 33.48 208.773 34.61 209.573 36.13C210.373 37.65 210.773 39.6 210.773 41.98C210.773 45.42 209.913 48.02 208.193 49.78C206.493 51.54 204.093 52.42 200.993 52.42ZM200.993 48.43C202.013 48.43 202.873 48.22 203.573 47.8C204.293 47.38 204.833 46.7 205.193 45.76C205.573 44.8 205.763 43.54 205.763 41.98C205.763 40.4 205.573 39.14 205.193 38.2C204.833 37.26 204.293 36.59 203.573 36.19C202.873 35.77 202.013 35.56 200.993 35.56C199.973 35.56 199.113 35.77 198.413 36.19C197.713 36.61 197.173 37.29 196.793 38.23C196.433 39.17 196.253 40.44 196.253 42.04C196.253 43.62 196.433 44.88 196.793 45.82C197.173 46.74 197.713 47.41 198.413 47.83C199.113 48.23 199.973 48.43 200.993 48.43ZM217.231 52L211.621 31.99H216.931L220.441 47.53H219.631L224.131 31.99H227.881L232.471 47.74H231.571L235.111 31.99H240.421L234.811 52H230.011L225.601 37.6H226.471L222.031 52H217.231Z" fill="#4353FF"/>
<path d="M47 63C59.7025 63 70 52.7025 70 40C70 27.2975 59.7025 17 47 17C34.2975 17 24 27.2975 24 40C24 52.7025 34.2975 63 47 63Z" fill="#4353FF"/>
<path d="M53.7562 37.2687L51.6 43.8812C51.6 43.45 50.1625 32.525 50.1625 32.525C46.8562 32.525 45.1312 34.825 44.125 37.4125L41.5375 44.025C41.5375 43.5937 41.25 37.5562 41.25 37.5562C40.9625 34.825 38.8062 32.8125 36.075 32.6687L38.8062 49.2C42.2562 49.2 44.125 46.9 45.1312 44.3125L47.2875 38.7062C47.2875 38.9937 48.725 49.2 48.725 49.2C51.6 49.2 54.1875 47.3312 55.05 44.6L59.9375 32.6687C56.4875 32.3812 54.6187 34.825 53.7562 37.2687Z" fill="white"/>
</svg>
