<svg width="265" height="80" viewBox="0 0 265 80" fill="none" xmlns="http://www.w3.org/2000/svg">
<rect x="2.5" y="2.5" width="260" height="75" stroke="#00749A" stroke-width="5"/>
<path d="M70.36 52L64.75 31.99H70.06L73.57 47.53H72.76L77.26 31.99H81.01L85.6 47.74H84.7L88.24 31.99H93.55L87.94 52H83.14L78.73 37.6H79.6L75.16 52H70.36ZM104.132 52.42C102.152 52.42 100.432 52.05 98.9718 51.31C97.5118 50.55 96.3718 49.4 95.5518 47.86C94.7518 46.32 94.3518 44.37 94.3518 42.01C94.3518 38.59 95.2118 36 96.9318 34.24C98.6518 32.48 101.052 31.6 104.132 31.6C106.112 31.6 107.832 31.98 109.292 32.74C110.772 33.48 111.912 34.61 112.712 36.13C113.512 37.65 113.912 39.6 113.912 41.98C113.912 45.42 113.052 48.02 111.332 49.78C109.632 51.54 107.232 52.42 104.132 52.42ZM104.132 48.43C105.152 48.43 106.012 48.22 106.712 47.8C107.432 47.38 107.972 46.7 108.332 45.76C108.712 44.8 108.902 43.54 108.902 41.98C108.902 40.4 108.712 39.14 108.332 38.2C107.972 37.26 107.432 36.59 106.712 36.19C106.012 35.77 105.152 35.56 104.132 35.56C103.112 35.56 102.252 35.77 101.552 36.19C100.852 36.61 100.312 37.29 99.9318 38.23C99.5718 39.17 99.3918 40.44 99.3918 42.04C99.3918 43.62 99.5718 44.88 99.9318 45.82C100.312 46.74 100.852 47.41 101.552 47.83C102.252 48.23 103.112 48.43 104.132 48.43ZM117.341 52V31.99H127.091C129.351 31.99 131.121 32.52 132.401 33.58C133.681 34.62 134.321 36.21 134.321 38.35C134.321 39.23 134.141 40.1 133.781 40.96C133.421 41.8 132.891 42.53 132.191 43.15C131.491 43.75 130.611 44.14 129.551 44.32L129.251 42.67L135.341 52H129.161L124.151 43.27L126.311 45.1H122.201V52H117.341ZM122.201 41.53H126.281C127.141 41.53 127.821 41.3 128.321 40.84C128.821 40.38 129.071 39.62 129.071 38.56C129.071 37.64 128.841 36.94 128.381 36.46C127.941 35.98 127.311 35.74 126.491 35.74H122.201V41.53ZM138.61 52V31.99H146.65C150.05 31.99 152.55 32.84 154.15 34.54C155.75 36.22 156.55 38.71 156.55 42.01C156.55 45.29 155.75 47.78 154.15 49.48C152.55 51.16 150.05 52 146.65 52H138.61ZM143.47 48.25H146.08C147.88 48.25 149.24 47.75 150.16 46.75C151.1 45.75 151.57 44.17 151.57 42.01C151.57 39.81 151.1 38.22 150.16 37.24C149.24 36.24 147.88 35.74 146.08 35.74H143.47V48.25ZM164.799 45.43V52H159.939V31.99H168.939C171.279 31.99 173.119 32.52 174.459 33.58C175.799 34.64 176.469 36.28 176.469 38.5C176.469 40.72 175.799 42.43 174.459 43.63C173.119 44.83 171.279 45.43 168.939 45.43H164.799ZM164.799 41.68H168.339C168.859 41.68 169.299 41.61 169.659 41.47C170.039 41.33 170.339 41.13 170.559 40.87C170.779 40.61 170.939 40.31 171.039 39.97C171.159 39.61 171.219 39.23 171.219 38.83C171.219 38.35 171.159 37.93 171.039 37.57C170.939 37.21 170.779 36.89 170.559 36.61C170.339 36.33 170.039 36.12 169.659 35.98C169.299 35.84 168.859 35.77 168.339 35.77H164.799V41.68ZM179.86 52V31.99H189.61C191.87 31.99 193.64 32.52 194.92 33.58C196.2 34.62 196.84 36.21 196.84 38.35C196.84 39.23 196.66 40.1 196.3 40.96C195.94 41.8 195.41 42.53 194.71 43.15C194.01 43.75 193.13 44.14 192.07 44.32L191.77 42.67L197.86 52H191.68L186.67 43.27L188.83 45.1H184.72V52H179.86ZM184.72 41.53H188.8C189.66 41.53 190.34 41.3 190.84 40.84C191.34 40.38 191.59 39.62 191.59 38.56C191.59 37.64 191.36 36.94 190.9 36.46C190.46 35.98 189.83 35.74 189.01 35.74H184.72V41.53ZM201.13 52V31.99H214.84V35.74H205.99V40.09H213.67V43.87H205.99V48.25H214.84V52H201.13ZM225.633 52.42C224.613 52.42 223.693 52.37 222.873 52.27C222.053 52.17 221.293 52.02 220.593 51.82C219.893 51.62 219.213 51.36 218.553 51.04V46.42C219.473 47.16 220.513 47.72 221.673 48.1C222.833 48.48 223.933 48.67 224.973 48.67C225.893 48.67 226.593 48.5 227.073 48.16C227.573 47.8 227.823 47.26 227.823 46.54C227.823 46 227.593 45.57 227.133 45.25C226.693 44.91 226.103 44.62 225.363 44.38C224.623 44.12 223.793 43.83 222.873 43.51C222.293 43.33 221.723 43.1 221.163 42.82C220.603 42.54 220.103 42.19 219.663 41.77C219.223 41.33 218.873 40.8 218.613 40.18C218.353 39.56 218.223 38.8 218.223 37.9C218.223 37.08 218.373 36.29 218.673 35.53C218.973 34.77 219.433 34.09 220.053 33.49C220.693 32.89 221.503 32.42 222.483 32.08C223.463 31.72 224.613 31.54 225.933 31.54C226.753 31.54 227.473 31.59 228.093 31.69C228.733 31.79 229.343 31.94 229.923 32.14C230.503 32.32 231.093 32.56 231.693 32.86V37.54C231.233 37.16 230.713 36.81 230.133 36.49C229.573 36.15 228.983 35.87 228.363 35.65C227.743 35.43 227.093 35.31 226.413 35.29C225.813 35.27 225.263 35.33 224.763 35.47C224.263 35.61 223.873 35.84 223.593 36.16C223.313 36.46 223.173 36.85 223.173 37.33C223.173 37.89 223.343 38.33 223.683 38.65C224.023 38.97 224.493 39.24 225.093 39.46C225.693 39.66 226.363 39.88 227.103 40.12C227.923 40.36 228.673 40.63 229.353 40.93C230.053 41.21 230.663 41.57 231.183 42.01C231.703 42.45 232.103 42.99 232.383 43.63C232.663 44.27 232.803 45.04 232.803 45.94C232.803 47.14 232.523 48.24 231.963 49.24C231.403 50.22 230.593 51 229.533 51.58C228.473 52.14 227.173 52.42 225.633 52.42ZM242.948 52.42C241.928 52.42 241.008 52.37 240.188 52.27C239.368 52.17 238.608 52.02 237.908 51.82C237.208 51.62 236.528 51.36 235.868 51.04V46.42C236.788 47.16 237.828 47.72 238.988 48.1C240.148 48.48 241.248 48.67 242.288 48.67C243.208 48.67 243.908 48.5 244.388 48.16C244.888 47.8 245.138 47.26 245.138 46.54C245.138 46 244.908 45.57 244.448 45.25C244.008 44.91 243.418 44.62 242.678 44.38C241.938 44.12 241.108 43.83 240.188 43.51C239.608 43.33 239.038 43.1 238.478 42.82C237.918 42.54 237.418 42.19 236.978 41.77C236.538 41.33 236.188 40.8 235.928 40.18C235.668 39.56 235.538 38.8 235.538 37.9C235.538 37.08 235.688 36.29 235.988 35.53C236.288 34.77 236.748 34.09 237.368 33.49C238.008 32.89 238.818 32.42 239.798 32.08C240.778 31.72 241.928 31.54 243.248 31.54C244.068 31.54 244.788 31.59 245.408 31.69C246.048 31.79 246.658 31.94 247.238 32.14C247.818 32.32 248.408 32.56 249.008 32.86V37.54C248.548 37.16 248.028 36.81 247.448 36.49C246.888 36.15 246.298 35.87 245.678 35.65C245.058 35.43 244.408 35.31 243.728 35.29C243.128 35.27 242.578 35.33 242.078 35.47C241.578 35.61 241.188 35.84 240.908 36.16C240.628 36.46 240.488 36.85 240.488 37.33C240.488 37.89 240.658 38.33 240.998 38.65C241.338 38.97 241.808 39.24 242.408 39.46C243.008 39.66 243.678 39.88 244.418 40.12C245.238 40.36 245.988 40.63 246.668 40.93C247.368 41.21 247.978 41.57 248.498 42.01C249.018 42.45 249.418 42.99 249.698 43.63C249.978 44.27 250.118 45.04 250.118 45.94C250.118 47.14 249.838 48.24 249.278 49.24C248.718 50.22 247.908 51 246.848 51.58C245.788 52.14 244.488 52.42 242.948 52.42Z" fill="#00749A"/>
<g clip-path="url(#clip0_131_131)">
<path d="M17.2695 39.9994C17.2695 47.8097 21.8082 54.5586 28.3897 57.7573L18.9778 31.9695C17.8495 34.4961 17.2674 37.2324 17.2695 39.9994V39.9994ZM50.3202 39.0037C50.3202 36.5653 49.4443 34.8765 48.693 33.5621C47.6929 31.9368 46.7558 30.5605 46.7558 28.9352C46.7558 27.1215 48.131 25.4331 50.0686 25.4331C50.1561 25.4331 50.2391 25.444 50.3247 25.4489C46.814 22.2329 42.1371 20.2693 37.0004 20.2693C30.1073 20.2693 24.0428 23.806 20.5148 29.1627C20.9777 29.1766 21.4144 29.186 21.7846 29.186C23.8484 29.186 27.043 28.9356 27.043 28.9356C28.1066 28.8729 28.232 30.4351 27.1699 30.5609C27.1699 30.5609 26.1006 30.6866 24.9112 30.749L32.0964 52.1208L36.4147 39.1708L33.3402 30.7486C32.2777 30.6863 31.2712 30.5605 31.2712 30.5605C30.2079 30.4982 30.3326 28.8725 31.3958 28.9352C31.3958 28.9352 34.6542 29.1856 36.593 29.1856C38.6564 29.1856 41.8514 28.9352 41.8514 28.9352C42.9158 28.8725 43.0408 30.4347 41.9779 30.5605C41.9779 30.5605 40.9068 30.6863 39.7197 30.7486L46.85 51.9587L48.8177 45.3821C49.671 42.653 50.3202 40.6928 50.3202 39.0037V39.0037Z" fill="#00749A"/>
<path d="M37.3465 41.7253L31.4265 58.9271C33.2364 59.4605 35.1135 59.7313 37.0003 59.7313C39.298 59.7313 41.5015 59.3337 43.5525 58.6129C43.4975 58.5267 43.4505 58.4358 43.4121 58.341L37.3465 41.7253ZM54.3134 30.5331C54.3983 31.1616 54.4464 31.8366 54.4464 32.562C54.4464 34.5642 54.0724 36.8149 52.9461 39.6292L46.9191 57.0544C52.785 53.6338 56.7305 47.2788 56.7305 39.9994C56.7358 36.6907 55.9043 33.4343 54.3134 30.5331V30.5331Z" fill="#00749A"/>
<path d="M37.0003 17C24.3183 17 14 27.3174 14 39.9994C14 52.6828 24.3179 63.0003 37.0003 63.0003C49.682 63.0003 60.0018 52.6832 60.0018 39.9994C60.0014 27.3174 49.682 17 37.0003 17ZM37.0003 61.9456C24.8998 61.9456 15.0546 52.1005 15.0546 39.9994C15.0546 27.8994 24.8995 18.055 37.0003 18.055C49.1005 18.055 58.9449 27.8994 58.9449 39.9994C58.9449 52.1005 49.1001 61.9456 37.0003 61.9456Z" fill="#00749A"/>
</g>
<defs>
<clipPath id="clip0_131_131">
<rect width="46" height="46" fill="white" transform="translate(14 17)"/>
</clipPath>
</defs>
</svg>
