<?xml version="1.0" encoding="utf-8"?>
<!-- Generator: Adobe Illustrator 26.0.1, SVG Export Plug-In . SVG Version: 6.00 Build 0)  -->
<svg version="1.1" id="Calque_1" focusable="false" xmlns="http://www.w3.org/2000/svg" xmlns:xlink="http://www.w3.org/1999/xlink"
	 x="0px" y="0px" viewBox="0 0 14 14" style="enable-background:new 0 0 14 14;" xml:space="preserve">
<path d="M9.5,9.7c0,0,0.1,0,0.1,0c0.5,0,1,0,1.6,0c0.1,0,0.1,0,0.1-0.1c0-0.1,0-0.3,0-0.5c0.6,0.4,1.2,0.8,1.7,1.3
	c-0.6,0.4-1.1,0.8-1.7,1.3c0-0.2,0-0.3,0-0.4c0-0.2,0-0.2-0.2-0.2c-3.3,0-6.6,0-9.9,0C1,11,1,11,1,10.9c0-0.3,0-0.7,0-1
	c0-0.1,0-0.1,0.1-0.1c1.8,0,3.6,0,5.3,0c0.9,0,1.6-0.4,2.1-1.2c0.9-1.4,0-3.3-1.7-3.5C5.6,4.8,4.5,5.7,4.2,7c0,0.1,0,0.3,0,0.4
	c0.2,0,0.4-0.1,0.6-0.1C4.5,8,4.2,8.6,3.8,9.2c-0.5-0.5-1-1-1.5-1.5c0.1,0,0.3,0,0.4-0.1c0,0,0.1-0.1,0.1-0.1c0-0.3,0-0.7,0.1-1
	c0,0,0,0,0,0C2.6,6.4,2.3,6.3,2,6.1C1.4,5.7,1,4.8,1.2,4C1.4,3.2,2,2.5,2.8,2.4c0.5-0.1,1,0,1.5,0.3c0.1,0.1,0.1,0.1,0.2,0
	c0-0.1,0.1-0.1,0.1-0.2C4.7,2.8,4.8,3,4.8,3.3c0,0.1,0,0.2,0.1,0.3c0,0.1,0,0.1-0.1,0.1c-0.3,0-0.6,0-0.8-0.1c-0.1,0-0.1,0-0.2,0
	C3.8,3.5,3.9,3.4,4,3.3C3.8,3.2,3.6,3.2,3.5,3.1C2.6,3,1.9,3.6,1.9,4.5c0,0.6,0.6,1.2,1.2,1.3c0.1,0,0.1,0,0.1-0.1
	c0.5-0.9,1.1-1.5,2.1-1.8c2.2-0.7,4.4,0.6,4.9,2.8c0.2,1.1,0,2.1-0.7,3C9.5,9.6,9.5,9.6,9.5,9.7C9.5,9.7,9.5,9.7,9.5,9.7L9.5,9.7z"
	/>
</svg>
