<?xml version="1.0" encoding="utf-8"?>
<!-- Generator: Adobe Illustrator 26.0.1, SVG Export Plug-In . SVG Version: 6.00 Build 0)  -->
<svg version="1.1" id="Calque_1" xmlns="http://www.w3.org/2000/svg" xmlns:xlink="http://www.w3.org/1999/xlink" x="0px" y="0px"
	 viewBox="0 0 64 64" style="enable-background:new 0 0 64 64;" xml:space="preserve">
<style type="text/css">
	.st0{fill:#CF0A2C;}
	.st1{fill:#FFFFFF;}
</style>
<path class="st0" d="M64,52.8C64,59,59,64,52.8,64H11.2C5,64,0,59,0,52.8V11.2C0,5,5,0,11.2,0h41.6C59,0,64,5,64,11.2V52.8z"/>
<path class="st1" d="M17.6,53.8l0.2-7.8V9.5h5.4v18.9h0.1c1.9-3.4,5.4-5.5,10.3-5.5c7.5,0,12.8,6.2,12.7,15.4
	c0,10.8-6.8,16.1-13.5,16.1c-4.4,0-7.9-1.7-10.1-5.7h-0.2l-0.2,5L17.6,53.8L17.6,53.8z M23.3,41.7c0,0.7,0.1,1.4,0.2,2
	c1.1,3.8,4.2,6.4,8.2,6.4c5.7,0,9.2-4.7,9.2-11.6c0-6-3.1-11.2-9-11.2c-3.7,0-7.2,2.6-8.4,6.7c-0.1,0.6-0.3,1.4-0.3,2.2L23.3,41.7z"
	/>
</svg>
