<svg width="265" height="80" viewBox="0 0 265 80" fill="none" xmlns="http://www.w3.org/2000/svg">
<rect x="2.5" y="2.5" width="260" height="75" fill="white" stroke="#450135" stroke-width="5"/>
<path d="M163.048 54H155.812L139.432 29.988H146.668L163.048 54ZM151.132 38.88L156.352 29.988H162.796L154.156 43.2L151.132 38.88ZM152.104 43.956L146.02 54H139.72L149.044 39.96L152.104 43.956ZM165.99 54V29.988H175.638C179.718 29.988 182.718 31.008 184.638 33.048C186.558 35.064 187.518 38.052 187.518 42.012C187.518 45.948 186.558 48.936 184.638 50.976C182.718 52.992 179.718 54 175.638 54H165.99ZM171.822 49.5H174.954C177.114 49.5 178.746 48.9 179.85 47.7C180.978 46.5 181.542 44.604 181.542 42.012C181.542 39.372 180.978 37.464 179.85 36.288C178.746 35.088 177.114 34.488 174.954 34.488H171.822V49.5Z" fill="#450135"/>
<g clip-path="url(#clip0_131_61)">
<path d="M83.1458 17.0047H112.854C117.358 17.0047 121 20.739 121 25.3577V54.6422C121 59.2609 117.358 62.9952 112.854 62.9952H83.1458C78.6417 62.9952 75 59.2609 75 54.6422V25.3577C75 20.739 78.6417 17.0047 83.1458 17.0047Z" fill="#470137"/>
<path d="M99.1882 29.092L93.4382 38.8207L99.5715 49.139C99.6098 49.2176 99.629 49.2962 99.6098 49.3748C99.5907 49.4534 99.514 49.3945 99.399 49.4141H95.0098C94.7032 49.4141 94.4923 49.3945 94.3582 49.1979C93.9557 48.3725 93.534 47.5667 93.1315 46.7412C92.729 45.9354 92.2882 45.1099 91.8282 44.2648C91.3682 43.4197 90.9082 42.5746 90.4482 41.7098H90.4098C90.0073 42.5549 89.5665 43.4 89.1257 44.2451C88.6848 45.0903 88.244 45.9354 87.8224 46.7608C87.3815 47.5863 86.9407 48.4314 86.4999 49.2372C86.4232 49.4338 86.2699 49.4534 86.059 49.4534H81.8424C81.7657 49.4534 81.7082 49.4927 81.7082 49.3945C81.689 49.3159 81.7082 49.2372 81.7465 49.1783L87.7074 39.1548L81.8999 29.0723C81.8424 28.9937 81.8232 28.9151 81.8615 28.8758C81.8999 28.8168 81.9765 28.7972 82.0532 28.7972H86.404C86.4999 28.7972 86.5957 28.8168 86.6724 28.8365C86.749 28.8758 86.8065 28.9347 86.864 29.0134C87.2282 29.8585 87.6499 30.7036 88.0907 31.5487C88.5507 32.3938 88.9915 33.2193 89.4707 34.0448C89.9307 34.8702 90.3523 35.6957 90.7548 36.5408H90.7932C91.1957 35.676 91.6173 34.8309 92.039 34.0054C92.4607 33.18 92.9015 32.3545 93.3423 31.5291C93.7832 30.7036 94.2048 29.8585 94.6265 29.0527C94.6457 28.974 94.684 28.8954 94.7415 28.8561C94.8182 28.8168 94.8948 28.7972 94.9907 28.8168H99.0348C99.1307 28.7972 99.2265 28.8561 99.2457 28.9544C99.2648 28.974 99.2265 29.0527 99.1882 29.092V29.092ZM108.043 49.8269C106.625 49.8465 105.206 49.5517 103.922 48.9424C102.715 48.3725 101.718 47.4291 101.028 46.2695C100.319 45.0706 99.974 43.5769 99.974 41.7884C99.9548 40.334 100.319 38.8993 101.028 37.6414C101.756 36.3639 102.811 35.3026 104.076 34.5951C105.417 33.8286 107.027 33.4551 108.925 33.4551C109.021 33.4551 109.155 33.4551 109.327 33.4748C109.5 33.4944 109.691 33.4944 109.921 33.5141V27.3035C109.921 27.1659 109.979 27.0873 110.113 27.0873H114.004C114.1 27.0676 114.176 27.1462 114.196 27.2248V45.9747C114.196 46.3285 114.215 46.7215 114.234 47.1539C114.272 47.5667 114.291 47.9597 114.311 48.2939C114.311 48.4314 114.253 48.5494 114.119 48.6083C113.122 49.0407 112.068 49.3552 110.995 49.5517C110.017 49.7286 109.04 49.8269 108.043 49.8269V49.8269ZM109.921 45.8961V37.2483C109.749 37.209 109.576 37.1697 109.404 37.1501C109.193 37.1304 108.982 37.1108 108.771 37.1108C108.024 37.1108 107.276 37.268 106.606 37.6218C105.954 37.9559 105.398 38.4472 104.976 39.0762C104.555 39.7051 104.344 40.5502 104.344 41.5722C104.325 42.2601 104.44 42.948 104.67 43.5966C104.861 44.1272 105.149 44.5989 105.532 44.992C105.896 45.3458 106.337 45.6209 106.836 45.7781C107.353 45.955 107.89 46.0336 108.426 46.0336C108.714 46.0336 108.982 46.014 109.231 45.9943C109.481 46.014 109.691 45.9747 109.921 45.8961V45.8961Z" fill="#FF61F6"/>
</g>
<defs>
<clipPath id="clip0_131_61">
<rect width="46" height="46" fill="white" transform="translate(75 17)"/>
</clipPath>
</defs>
</svg>
