<svg width="265" height="80" viewBox="0 0 265 80" fill="none" xmlns="http://www.w3.org/2000/svg">
<rect x="2.5" y="2.5" width="260" height="75" stroke="#CF0A2C" stroke-width="5"/>
<path d="M85.272 50V28.656H94.328C95.8853 28.656 97.2293 28.8587 98.36 29.264C99.512 29.648 100.408 30.2773 101.048 31.152C101.688 32.0053 102.008 33.1467 102.008 34.576C102.008 35.536 101.773 36.3253 101.304 36.944C100.835 37.5627 100.269 38.064 99.608 38.448C98.9467 38.8107 98.328 39.0987 97.752 39.312L97.176 38.192C98.3493 38.2347 99.3733 38.48 100.248 38.928C101.144 39.3547 101.837 39.9627 102.328 40.752C102.84 41.52 103.096 42.448 103.096 43.536C103.096 45.0293 102.733 46.256 102.008 47.216C101.304 48.1547 100.355 48.8587 99.16 49.328C97.9653 49.776 96.6427 50 95.192 50H85.272ZM90.456 46H94.808C95.3413 46 95.832 45.9253 96.28 45.776C96.728 45.6053 97.0907 45.328 97.368 44.944C97.6453 44.5387 97.784 44.0053 97.784 43.344C97.784 42.8533 97.6987 42.448 97.528 42.128C97.3573 41.808 97.1227 41.5627 96.824 41.392C96.5467 41.2 96.2267 41.0613 95.864 40.976C95.5013 40.8907 95.1173 40.848 94.712 40.848H90.456V46ZM90.456 37.04H94.616C94.9787 37.04 95.32 36.976 95.64 36.848C95.96 36.6987 96.216 36.4747 96.408 36.176C96.6213 35.8773 96.728 35.4827 96.728 34.992C96.728 34.1173 96.4933 33.52 96.024 33.2C95.5547 32.8587 94.9787 32.688 94.296 32.688H90.456V37.04ZM104.885 50L112.949 28.656H118.613L126.165 50H120.853L114.037 29.872L116.565 29.648L109.781 50H104.885ZM109.429 45.392L110.485 41.584H120.181L120.661 45.392H109.429ZM128.866 50V28.656H134.05V45.936H143.33V50H128.866ZM153.784 50.448C152.696 50.448 151.714 50.3947 150.84 50.288C149.965 50.1813 149.154 50.0213 148.408 49.808C147.661 49.5947 146.936 49.3173 146.232 48.976V44.048C147.213 44.8373 148.322 45.4347 149.56 45.84C150.797 46.2453 151.97 46.448 153.08 46.448C154.061 46.448 154.808 46.2667 155.32 45.904C155.853 45.52 156.12 44.944 156.12 44.176C156.12 43.6 155.874 43.1413 155.384 42.8C154.914 42.4373 154.285 42.128 153.496 41.872C152.706 41.5947 151.821 41.2853 150.84 40.944C150.221 40.752 149.613 40.5067 149.016 40.208C148.418 39.9093 147.885 39.536 147.416 39.088C146.946 38.6187 146.573 38.0533 146.296 37.392C146.018 36.7307 145.88 35.92 145.88 34.96C145.88 34.0853 146.04 33.2427 146.36 32.432C146.68 31.6213 147.17 30.896 147.832 30.256C148.514 29.616 149.378 29.1147 150.424 28.752C151.469 28.368 152.696 28.176 154.104 28.176C154.978 28.176 155.746 28.2293 156.408 28.336C157.09 28.4427 157.741 28.6027 158.36 28.816C158.978 29.008 159.608 29.264 160.248 29.584V34.576C159.757 34.1707 159.202 33.7973 158.584 33.456C157.986 33.0933 157.357 32.7947 156.696 32.56C156.034 32.3253 155.341 32.1973 154.616 32.176C153.976 32.1547 153.389 32.2187 152.856 32.368C152.322 32.5173 151.906 32.7627 151.608 33.104C151.309 33.424 151.16 33.84 151.16 34.352C151.16 34.9493 151.341 35.4187 151.704 35.76C152.066 36.1013 152.568 36.3893 153.208 36.624C153.848 36.8373 154.562 37.072 155.352 37.328C156.226 37.584 157.026 37.872 157.752 38.192C158.498 38.4907 159.149 38.8747 159.704 39.344C160.258 39.8133 160.685 40.3893 160.984 41.072C161.282 41.7547 161.432 42.576 161.432 43.536C161.432 44.816 161.133 45.9893 160.536 47.056C159.938 48.1013 159.074 48.9333 157.944 49.552C156.813 50.1493 155.426 50.448 153.784 50.448ZM163.229 50L171.293 28.656H176.957L184.509 50H179.197L172.381 29.872L174.909 29.648L168.125 50H163.229ZM167.773 45.392L168.829 41.584H178.525L179.005 45.392H167.773ZM187.21 50V28.656H192.49L199.818 38.864L197.002 38.96L204.586 28.656H209.738V50H204.554V32.56L205.578 34.224L198.282 43.92L191.05 34.064L192.17 33.296V50H187.21ZM214.272 50V28.656H219.456V50H214.272ZM233.495 50.672C230.124 50.672 227.543 49.7653 225.751 47.952C223.959 46.1173 223.063 43.248 223.063 39.344C223.063 35.5893 223.916 32.7627 225.623 30.864C227.351 28.9653 229.975 28.016 233.495 28.016C236.908 28.016 239.5 28.9333 241.271 30.768C243.041 32.5813 243.927 35.4293 243.927 39.312C243.927 43.088 243.073 45.9253 241.367 47.824C239.66 49.7227 237.036 50.672 233.495 50.672ZM233.495 47.088C234.583 47.0667 235.5 46.8213 236.247 46.352C237.015 45.8827 237.591 45.0933 237.975 43.984C238.38 42.8533 238.583 41.296 238.583 39.312C238.583 37.4773 238.38 36.0267 237.975 34.96C237.591 33.8933 237.015 33.136 236.247 32.688C235.5 32.24 234.583 32.016 233.495 32.016C232.407 32.016 231.489 32.2507 230.743 32.72C229.996 33.168 229.42 33.9253 229.015 34.992C228.631 36.0587 228.439 37.52 228.439 39.376C228.439 41.36 228.631 42.9173 229.015 44.048C229.42 45.1573 229.996 45.9467 230.743 46.416C231.489 46.864 232.407 47.088 233.495 47.088ZM241.815 50.224C242.199 50.224 242.529 50.1813 242.807 50.096C243.084 50.032 243.447 49.8613 243.895 49.584V52.784C243.511 52.9973 243.063 53.1467 242.551 53.232C242.06 53.3173 241.495 53.36 240.855 53.36C240.3 53.36 239.724 53.296 239.127 53.168C238.551 53.04 238.007 52.7947 237.495 52.432C237.004 52.0907 236.567 51.6213 236.183 51.024C235.799 50.4267 235.521 49.6587 235.351 48.72C235.18 47.888 234.935 47.1627 234.615 46.544C234.316 45.904 233.964 45.4133 233.559 45.072C233.153 44.7307 232.684 44.56 232.151 44.56C231.489 44.56 230.871 44.7093 230.295 45.008C229.74 45.3067 229.239 45.7653 228.791 46.384V43.056C229.153 42.5227 229.719 42.0427 230.487 41.616C231.255 41.168 232.14 40.944 233.143 40.944C233.975 40.944 234.775 41.1253 235.543 41.488C236.311 41.8507 236.993 42.4587 237.591 43.312C238.209 44.1653 238.679 45.328 238.999 46.8C239.255 47.824 239.617 48.656 240.087 49.296C240.556 49.9147 241.132 50.224 241.815 50.224Z" fill="#CF0A2C"/>
<path d="M65 52.95C65 57.4062 61.4062 61 56.95 61H27.05C22.5938 61 19 57.4062 19 52.95V23.05C19 18.5938 22.5938 15 27.05 15H56.95C61.4062 15 65 18.5938 65 23.05V52.95Z" fill="#CF0A2C"/>
<path d="M31.6499 53.6687L31.7937 48.0625V21.8281H35.6749V35.4125H35.7468C37.1124 32.9687 39.628 31.4594 43.1499 31.4594C48.5405 31.4594 52.3499 35.9156 52.278 42.5281C52.278 50.2906 47.3905 54.1 42.5749 54.1C39.4124 54.1 36.8968 52.8781 35.3155 50.0031H35.1718L35.028 53.5969L31.6499 53.6687ZM35.7468 44.9719C35.7468 45.475 35.8187 45.9781 35.8905 46.4094C36.6812 49.1406 38.9093 51.0094 41.7843 51.0094C45.8812 51.0094 48.3968 47.6313 48.3968 42.6719C48.3968 38.3594 46.1687 34.6219 41.928 34.6219C39.2687 34.6219 36.753 36.4906 35.8905 39.4375C35.8187 39.8688 35.6749 40.4438 35.6749 41.0188L35.7468 44.9719Z" fill="white"/>
</svg>
