<svg width="265" height="80" viewBox="0 0 265 80" fill="none" xmlns="http://www.w3.org/2000/svg">
<rect x="2.5" y="2.5" width="260" height="75" stroke="#483564" stroke-width="5"/>
<path d="M104.556 55V30.988H120.9V35.488H110.388V41.212H119.46V45.784H110.388V55H104.556ZM125.087 55V30.988H130.919V55H125.087ZM146.713 55.504C144.361 55.504 142.297 55.084 140.521 54.244C138.769 53.404 137.401 52.072 136.417 50.248C135.457 48.4 134.977 45.988 134.977 43.012C134.977 40.084 135.457 37.696 136.417 35.848C137.401 34 138.769 32.644 140.521 31.78C142.297 30.892 144.361 30.448 146.713 30.448C148.225 30.448 149.701 30.604 151.141 30.916C152.581 31.228 153.961 31.66 155.281 32.212V37.504C153.841 36.76 152.497 36.16 151.249 35.704C150.025 35.248 148.753 35.02 147.433 35.02C146.065 35.02 144.889 35.26 143.905 35.74C142.945 36.22 142.213 37.048 141.709 38.224C141.205 39.376 140.953 40.96 140.953 42.976C140.953 44.968 141.205 46.552 141.709 47.728C142.237 48.88 142.969 49.708 143.905 50.212C144.841 50.716 145.933 50.968 147.181 50.968C147.829 50.968 148.429 50.932 148.981 50.86C149.557 50.764 150.061 50.608 150.493 50.392V46.144H146.533V41.608H156.325V52.912C154.837 53.728 153.277 54.364 151.645 54.82C150.037 55.276 148.393 55.504 146.713 55.504ZM161.439 55V30.988H167.379L175.623 42.472L172.455 42.58L180.987 30.988H186.783V55H180.951V35.38L182.103 37.252L173.895 48.16L165.759 37.072L167.019 36.208V55H161.439ZM189.796 55L198.868 30.988H205.24L213.736 55H207.76L200.092 32.356L202.936 32.104L195.304 55H189.796ZM194.908 49.816L196.096 45.532H207.004L207.544 49.816H194.908Z" fill="#483564"/>
<g clip-path="url(#clip0_131_43)">
<path d="M58.6267 64C63.3868 64 67.25 60.5653 67.25 56.3333V48.6667H58.6267C53.8667 48.6667 50.0034 52.1013 50.0034 56.3333C50.0034 60.5653 53.8667 64 58.6267 64Z" fill="#0ACF83"/>
<path d="M50.0034 41C50.0034 36.768 53.8667 33.3333 58.6267 33.3333H67.25V48.6667H58.6267C53.8667 48.6667 50.0034 45.232 50.0034 41Z" fill="#A259FF"/>
<path d="M50.0034 25.6668C50.0034 21.4348 53.8667 18.0001 58.6267 18.0001H67.25V33.3334H58.6267C53.8667 33.3334 50.0034 29.8987 50.0034 25.6668Z" fill="#F24E1E"/>
<path d="M67.25 18.0001H75.8733C80.6334 18.0001 84.4967 21.4348 84.4967 25.6668C84.4967 29.8987 80.6334 33.3334 75.8733 33.3334H67.25V18.0001Z" fill="#FF7262"/>
<path d="M84.4967 41C84.4967 45.232 80.6334 48.6667 75.8733 48.6667C71.1133 48.6667 67.25 45.232 67.25 41C67.25 36.768 71.1133 33.3333 75.8733 33.3333C80.6334 33.3333 84.4967 36.768 84.4967 41Z" fill="#1ABCFE"/>
</g>
<defs>
<clipPath id="clip0_131_43">
<rect width="34.5" height="46" fill="white" transform="translate(50 18)"/>
</clipPath>
</defs>
</svg>
