<svg width="265" height="80" viewBox="0 0 265 80" fill="none" xmlns="http://www.w3.org/2000/svg">
<rect x="2.5" y="2.5" width="260" height="75" stroke="#001E36" stroke-width="5"/>
<path d="M75.99 42.43V49H71.13V28.99H80.13C82.47 28.99 84.31 29.52 85.65 30.58C86.99 31.64 87.66 33.28 87.66 35.5C87.66 37.72 86.99 39.43 85.65 40.63C84.31 41.83 82.47 42.43 80.13 42.43H75.99ZM75.99 38.68H79.53C80.05 38.68 80.49 38.61 80.85 38.47C81.23 38.33 81.53 38.13 81.75 37.87C81.97 37.61 82.13 37.31 82.23 36.97C82.35 36.61 82.41 36.23 82.41 35.83C82.41 35.35 82.35 34.93 82.23 34.57C82.13 34.21 81.97 33.89 81.75 33.61C81.53 33.33 81.23 33.12 80.85 32.98C80.49 32.84 80.05 32.77 79.53 32.77H75.99V38.68ZM91.0519 49V28.99H95.9119V37.09H103.262V28.99H108.092V49H103.262V41.05H95.9119V49H91.0519ZM121.261 49.42C119.281 49.42 117.561 49.05 116.101 48.31C114.641 47.55 113.501 46.4 112.681 44.86C111.881 43.32 111.481 41.37 111.481 39.01C111.481 35.59 112.341 33 114.061 31.24C115.781 29.48 118.181 28.6 121.261 28.6C123.241 28.6 124.961 28.98 126.421 29.74C127.901 30.48 129.041 31.61 129.841 33.13C130.641 34.65 131.041 36.6 131.041 38.98C131.041 42.42 130.181 45.02 128.461 46.78C126.761 48.54 124.361 49.42 121.261 49.42ZM121.261 45.43C122.281 45.43 123.141 45.22 123.841 44.8C124.561 44.38 125.101 43.7 125.461 42.76C125.841 41.8 126.031 40.54 126.031 38.98C126.031 37.4 125.841 36.14 125.461 35.2C125.101 34.26 124.561 33.59 123.841 33.19C123.141 32.77 122.281 32.56 121.261 32.56C120.241 32.56 119.381 32.77 118.681 33.19C117.981 33.61 117.441 34.29 117.061 35.23C116.701 36.17 116.521 37.44 116.521 39.04C116.521 40.62 116.701 41.88 117.061 42.82C117.441 43.74 117.981 44.41 118.681 44.83C119.381 45.23 120.241 45.43 121.261 45.43ZM138.553 49V32.74H132.943V28.99H149.113V32.74H143.413V49H138.553ZM160.753 49.42C158.773 49.42 157.053 49.05 155.593 48.31C154.133 47.55 152.993 46.4 152.173 44.86C151.373 43.32 150.973 41.37 150.973 39.01C150.973 35.59 151.833 33 153.553 31.24C155.273 29.48 157.673 28.6 160.753 28.6C162.733 28.6 164.453 28.98 165.913 29.74C167.393 30.48 168.533 31.61 169.333 33.13C170.133 34.65 170.533 36.6 170.533 38.98C170.533 42.42 169.673 45.02 167.953 46.78C166.253 48.54 163.853 49.42 160.753 49.42ZM160.753 45.43C161.773 45.43 162.633 45.22 163.333 44.8C164.053 44.38 164.593 43.7 164.953 42.76C165.333 41.8 165.523 40.54 165.523 38.98C165.523 37.4 165.333 36.14 164.953 35.2C164.593 34.26 164.053 33.59 163.333 33.19C162.633 32.77 161.773 32.56 160.753 32.56C159.733 32.56 158.873 32.77 158.173 33.19C157.473 33.61 156.933 34.29 156.553 35.23C156.193 36.17 156.013 37.44 156.013 39.04C156.013 40.62 156.193 41.88 156.553 42.82C156.933 43.74 157.473 44.41 158.173 44.83C158.873 45.23 159.733 45.43 160.753 45.43ZM180.682 49.42C179.662 49.42 178.742 49.37 177.922 49.27C177.102 49.17 176.342 49.02 175.642 48.82C174.942 48.62 174.262 48.36 173.602 48.04V43.42C174.522 44.16 175.562 44.72 176.722 45.1C177.882 45.48 178.982 45.67 180.022 45.67C180.942 45.67 181.642 45.5 182.122 45.16C182.622 44.8 182.872 44.26 182.872 43.54C182.872 43 182.642 42.57 182.182 42.25C181.742 41.91 181.152 41.62 180.412 41.38C179.672 41.12 178.842 40.83 177.922 40.51C177.342 40.33 176.772 40.1 176.212 39.82C175.652 39.54 175.152 39.19 174.712 38.77C174.272 38.33 173.922 37.8 173.662 37.18C173.402 36.56 173.272 35.8 173.272 34.9C173.272 34.08 173.422 33.29 173.722 32.53C174.022 31.77 174.482 31.09 175.102 30.49C175.742 29.89 176.552 29.42 177.532 29.08C178.512 28.72 179.662 28.54 180.982 28.54C181.802 28.54 182.522 28.59 183.142 28.69C183.782 28.79 184.392 28.94 184.972 29.14C185.552 29.32 186.142 29.56 186.742 29.86V34.54C186.282 34.16 185.762 33.81 185.182 33.49C184.622 33.15 184.032 32.87 183.412 32.65C182.792 32.43 182.142 32.31 181.462 32.29C180.862 32.27 180.312 32.33 179.812 32.47C179.312 32.61 178.922 32.84 178.642 33.16C178.362 33.46 178.222 33.85 178.222 34.33C178.222 34.89 178.392 35.33 178.732 35.65C179.072 35.97 179.542 36.24 180.142 36.46C180.742 36.66 181.412 36.88 182.152 37.12C182.972 37.36 183.722 37.63 184.402 37.93C185.102 38.21 185.712 38.57 186.232 39.01C186.752 39.45 187.152 39.99 187.432 40.63C187.712 41.27 187.852 42.04 187.852 42.94C187.852 44.14 187.572 45.24 187.012 46.24C186.452 47.22 185.642 48 184.582 48.58C183.522 49.14 182.222 49.42 180.682 49.42ZM191.276 49V28.99H196.136V37.09H203.486V28.99H208.316V49H203.486V41.05H196.136V49H191.276ZM221.485 49.42C219.505 49.42 217.785 49.05 216.325 48.31C214.865 47.55 213.725 46.4 212.905 44.86C212.105 43.32 211.705 41.37 211.705 39.01C211.705 35.59 212.565 33 214.285 31.24C216.005 29.48 218.405 28.6 221.485 28.6C223.465 28.6 225.185 28.98 226.645 29.74C228.125 30.48 229.265 31.61 230.065 33.13C230.865 34.65 231.265 36.6 231.265 38.98C231.265 42.42 230.405 45.02 228.685 46.78C226.985 48.54 224.585 49.42 221.485 49.42ZM221.485 45.43C222.505 45.43 223.365 45.22 224.065 44.8C224.785 44.38 225.325 43.7 225.685 42.76C226.065 41.8 226.255 40.54 226.255 38.98C226.255 37.4 226.065 36.14 225.685 35.2C225.325 34.26 224.785 33.59 224.065 33.19C223.365 32.77 222.505 32.56 221.485 32.56C220.465 32.56 219.605 32.77 218.905 33.19C218.205 33.61 217.665 34.29 217.285 35.23C216.925 36.17 216.745 37.44 216.745 39.04C216.745 40.62 216.925 41.88 217.285 42.82C217.665 43.74 218.205 44.41 218.905 44.83C219.605 45.23 220.465 45.43 221.485 45.43ZM239.554 42.43V49H234.694V28.99H243.694C246.034 28.99 247.874 29.52 249.214 30.58C250.554 31.64 251.224 33.28 251.224 35.5C251.224 37.72 250.554 39.43 249.214 40.63C247.874 41.83 246.034 42.43 243.694 42.43H239.554ZM239.554 38.68H243.094C243.614 38.68 244.054 38.61 244.414 38.47C244.794 38.33 245.094 38.13 245.314 37.87C245.534 37.61 245.694 37.31 245.794 36.97C245.914 36.61 245.974 36.23 245.974 35.83C245.974 35.35 245.914 34.93 245.794 34.57C245.694 34.21 245.534 33.89 245.314 33.61C245.094 33.33 244.794 33.12 244.414 32.98C244.054 32.84 243.614 32.77 243.094 32.77H239.554V38.68Z" fill="#001E36"/>
<g clip-path="url(#clip0_131_53)">
<path d="M21.1458 17.0047H50.8541C55.3582 17.0047 58.9999 20.739 58.9999 25.3577V54.6422C58.9999 59.2609 55.3582 62.9952 50.8541 62.9952H21.1458C16.6417 62.9952 13 59.2609 13 54.6422V25.3577C13 20.739 16.6417 17.0047 21.1458 17.0047Z" fill="#001E36"/>
<path d="M23.3501 49.2571V29.0332C23.3501 28.8956 23.4076 28.817 23.5418 28.817C23.8676 28.817 24.1743 28.817 24.6151 28.7974C25.0751 28.7777 25.5543 28.7777 26.0718 28.7581C26.5893 28.7384 27.1451 28.7384 27.7393 28.7187C28.3335 28.6991 28.9085 28.6991 29.4835 28.6991C31.0551 28.6991 32.3585 28.8956 33.4318 29.3084C34.3902 29.6425 35.2718 30.1928 36.0002 30.92C36.6135 31.5489 37.0927 32.3154 37.3994 33.1605C37.6869 33.986 37.8402 34.8311 37.8402 35.7155C37.8402 37.4058 37.4569 38.8012 36.6902 39.9018C35.9235 41.0024 34.8502 41.8279 33.6043 42.2996C32.301 42.7909 30.8635 42.9678 29.2918 42.9678C28.8318 42.9678 28.5251 42.9678 28.3335 42.9482C28.1418 42.9285 27.8735 42.9285 27.5093 42.9285V49.2374C27.5285 49.375 27.4326 49.4929 27.2985 49.5126H23.5801C23.4268 49.5126 23.3501 49.434 23.3501 49.2571ZM27.5285 32.6102V39.2139C27.7968 39.2336 28.046 39.2532 28.276 39.2532H29.2918C30.0393 39.2532 30.7868 39.1353 31.496 38.8995C32.1093 38.7226 32.646 38.3492 33.0677 37.8578C33.4702 37.3665 33.6618 36.6982 33.6618 35.8335C33.681 35.2242 33.5277 34.6149 33.221 34.0843C32.8952 33.5733 32.4352 33.1802 31.8793 32.964C31.1702 32.6692 30.4035 32.5513 29.6176 32.5709C29.1193 32.5709 28.6785 32.5709 28.3143 32.5906C27.931 32.5709 27.6626 32.5906 27.5285 32.6102V32.6102ZM49.8003 38.015C49.2253 37.7006 48.6119 37.4844 47.9603 37.3468C47.2511 37.1896 46.5419 37.0913 45.8136 37.0913C45.4302 37.0717 45.0277 37.1306 44.6636 37.2289C44.4144 37.2878 44.2036 37.4254 44.0694 37.622C43.9736 37.7792 43.9161 37.9757 43.9161 38.1526C43.9161 38.3295 43.9927 38.5064 44.1077 38.6636C44.2802 38.8798 44.5102 39.0567 44.7594 39.1943C45.2002 39.4301 45.6602 39.6463 46.1203 39.8429C47.1553 40.1966 48.1519 40.688 49.0719 41.2776C49.7044 41.6903 50.2219 42.2406 50.5861 42.9089C50.8928 43.5378 51.0461 44.2257 51.0269 44.9332C51.0461 45.857 50.7778 46.7807 50.2794 47.5472C49.7428 48.3333 48.9953 48.9426 48.1328 49.2964C47.1936 49.7091 46.0436 49.9253 44.6636 49.9253C43.7819 49.9253 42.9194 49.8467 42.0569 49.6698C41.3861 49.5519 40.7152 49.3357 40.1019 49.0409C39.9677 48.9623 39.8719 48.8247 39.891 48.6675V45.2477C39.891 45.1887 39.9102 45.1101 39.9677 45.0708C40.0252 45.0315 40.0827 45.0511 40.1402 45.0904C40.8877 45.5425 41.6736 45.857 42.5169 46.0535C43.2452 46.25 44.0119 46.3483 44.7786 46.3483C45.5069 46.3483 46.0244 46.25 46.3694 46.0731C46.6761 45.9356 46.8869 45.6015 46.8869 45.2477C46.8869 44.9725 46.7336 44.717 46.4269 44.4615C46.1203 44.206 45.4877 43.9112 44.5486 43.5378C43.5711 43.184 42.6702 42.7123 41.8269 42.1227C41.2327 41.6903 40.7344 41.1204 40.3702 40.4521C40.0635 39.8232 39.9102 39.1353 39.9294 38.4474C39.9294 37.6023 40.1594 36.7965 40.581 36.0693C41.0602 35.2831 41.7694 34.6542 42.5936 34.2611C43.4944 33.7895 44.6252 33.5733 45.9861 33.5733C46.7719 33.5733 47.5769 33.6322 48.3628 33.7501C48.9378 33.8288 49.4936 33.986 50.0111 34.2022C50.0878 34.2218 50.1644 34.3005 50.2028 34.3791C50.2219 34.4577 50.2411 34.5363 50.2411 34.6149V37.8185C50.2411 37.8971 50.2028 37.9757 50.1453 38.015C49.9728 38.0544 49.8769 38.0544 49.8003 38.015V38.015Z" fill="#31A8FF"/>
</g>
<defs>
<clipPath id="clip0_131_53">
<rect width="46" height="46" fill="white" transform="translate(13 17)"/>
</clipPath>
</defs>
</svg>
